<?xml version="1.0" encoding="UTF-8"?>
<!DOCTYPE svg PUBLIC "-//W3C//DTD SVG 1.1//EN" "http://www.w3.org/Graphics/SVG/1.1/DTD/svg11.dtd">
<svg xmlns="http://www.w3.org/2000/svg" version="1.1" width="242px" height="242px" style="shape-rendering:geometricPrecision; text-rendering:geometricPrecision; image-rendering:optimizeQuality; fill-rule:evenodd; clip-rule:evenodd" xmlns:xlink="http://www.w3.org/1999/xlink">
<g><path style="opacity:0.294" fill="#d0dce4" d="M 99.5,-0.5 C 102.833,-0.5 106.167,-0.5 109.5,-0.5C 109.5,-0.166667 109.5,0.166667 109.5,0.5C 105.985,1.23904 102.652,1.23904 99.5,0.5C 99.5,0.166667 99.5,-0.166667 99.5,-0.5 Z"/></g>
<g><path style="opacity:0.017" fill="#000000" d="M 84.5,2.5 C 82.5,2.5 80.5,2.5 78.5,2.5C 78.3893,1.88258 78.056,1.38258 77.5,1C 78.6667,0.833333 79.8333,0.666667 81,0.5C 82.6811,0.608263 83.8478,1.27493 84.5,2.5 Z"/></g>
<g><path style="opacity:0.017" fill="#000002" d="M 162.5,2.5 C 160.5,2.5 158.5,2.5 156.5,2.5C 157.152,1.27493 158.319,0.608263 160,0.5C 161.167,0.666667 162.333,0.833333 163.5,1C 162.944,1.38258 162.611,1.88258 162.5,2.5 Z"/></g>
<g><path style="opacity:0.016" fill="#000001" d="M 78.5,2.5 C 78.5,3.16667 78.5,3.83333 78.5,4.5C 76.8333,4.5 75.1667,4.5 73.5,4.5C 74.5521,2.74395 76.2188,2.07729 78.5,2.5 Z"/></g>
<g><path style="opacity:0.055" fill="#222427" d="M 84.5,2.5 C 85.8333,2.5 87.1667,2.5 88.5,2.5C 87.0697,3.53747 85.403,4.20414 83.5,4.5C 83.8333,3.83333 84.1667,3.16667 84.5,2.5 Z"/></g>
<g><path style="opacity:1" fill="#162c42" d="M 155.5,4.5 C 156.167,4.5 156.833,4.5 157.5,4.5C 159.167,4.5 160.833,4.5 162.5,4.5C 162.833,5.16667 163.167,5.83333 163.5,6.5C 162.262,6.81001 162.262,7.31001 163.5,8C 169.636,10.2365 175.636,12.7365 181.5,15.5C 187.308,19.5795 192.975,23.9128 198.5,28.5C 203.465,32.9634 208.298,37.6301 213,42.5C 213.399,42.2716 213.565,41.9382 213.5,41.5C 214.222,42.5511 215.222,43.2178 216.5,43.5C 216.5,44.8333 217.167,45.5 218.5,45.5C 218.285,47.1788 218.952,48.1788 220.5,48.5C 220.285,50.1788 220.952,51.1788 222.5,51.5C 222.427,53.0269 223.094,54.0269 224.5,54.5C 224.285,56.1788 224.952,57.1788 226.5,57.5C 226.229,59.3797 226.896,60.713 228.5,61.5C 228.285,63.1788 228.952,64.1788 230.5,64.5C 230.238,65.9778 230.571,67.3112 231.5,68.5C 232.386,67.675 232.719,66.675 232.5,65.5C 233.117,65.3893 233.617,65.056 234,64.5C 234.494,66.1341 234.66,67.8008 234.5,69.5C 231.978,70.6649 231.978,71.9982 234.5,73.5C 234.12,75.698 234.787,77.3646 236.5,78.5C 236.054,81.0101 236.72,83.0101 238.5,84.5C 239.583,89.5252 240.583,94.5252 241.5,99.5C 241.5,113.5 241.5,127.5 241.5,141.5C 241.167,141.5 240.833,141.5 240.5,141.5C 236.728,139.695 232.728,138.195 228.5,137C 226.167,135 223.833,133 221.5,131C 220.949,129.602 220.616,128.268 220.5,127C 224.093,126.316 224.427,124.816 221.5,122.5C 220.641,121.226 219.974,121.392 219.5,123C 219.905,123.945 220.572,124.612 221.5,125C 220.5,125.5 219.5,126 218.5,126.5C 216.014,124.557 213.681,122.391 211.5,120C 213.473,119.505 215.473,119.338 217.5,119.5C 217.56,115.673 216.393,115.006 214,117.5C 213.316,116.216 213.483,115.049 214.5,114C 211.661,112.158 208.827,110.325 206,108.5C 202.379,100.083 197.879,92.2498 192.5,85C 194.947,83.7711 195.113,82.2711 193,80.5C 192.667,80.8333 192.333,81.1667 192,81.5C 191.333,80.5 191.333,79.5 192,78.5C 192.667,77.1667 193.333,77.1667 194,78.5C 194.333,77.8333 194.667,77.1667 195,76.5C 195.423,77.9561 196.256,78.4561 197.5,78C 198.328,77.0853 199.328,76.4186 200.5,76C 196.735,74.6228 197.068,73.6228 201.5,73C 200.833,72.3333 200.167,71.6667 199.5,71C 199.19,69.1259 199.69,67.2926 201,65.5C 201.667,59.5 201.667,53.5 201,47.5C 199.181,39.1406 194.848,37.4739 188,42.5C 187.333,43.8333 186.667,45.1667 186,46.5C 185.831,52.8594 185.331,59.1928 184.5,65.5C 183.5,67.1667 182.167,68.5 180.5,69.5C 176.646,65.6556 177.646,63.1556 183.5,62C 181.612,60.3551 179.945,58.5218 178.5,56.5C 181.124,54.0662 181.957,51.0662 181,47.5C 179.605,48.8146 178.605,48.4812 178,46.5C 177.779,51.22 177.279,55.8867 176.5,60.5C 177.789,63.1506 177.289,65.4839 175,67.5C 175.505,60.5387 175.505,53.5387 175,46.5C 174.598,45.1279 174.098,43.7946 173.5,42.5C 168.198,41.3372 162.864,41.1705 157.5,42C 156.333,43.8333 154.833,45.3333 153,46.5C 152.487,44.4794 151.32,42.9794 149.5,42C 144.167,41.3333 138.833,41.3333 133.5,42C 132.584,42.3742 131.75,42.8742 131,43.5C 128.652,50.1825 127.319,56.8492 127,63.5C 125.5,61.6667 124,59.8333 122.5,58C 123.863,55.8707 123.529,55.3707 121.5,56.5C 120.5,55.8333 119.5,55.1667 118.5,54.5C 117.987,51.4955 116.487,49.1622 114,47.5C 113.209,48.745 112.709,50.0783 112.5,51.5C 111.067,49.4809 109.733,47.3143 108.5,45C 105.183,44.5017 101.85,44.335 98.5,44.5C 100.969,43.6829 103.635,43.1829 106.5,43C 106.833,42.6667 107.167,42.3333 107.5,42C 99.8343,40.1278 93.6676,42.2945 89,48.5C 88.0438,51.3771 86.7105,54.0438 85,56.5C 86.4122,53.6159 86.9122,50.6159 86.5,47.5C 85.6948,45.5283 84.3615,44.0283 82.5,43C 83.4506,42.2825 83.6172,41.4491 83,40.5C 81.3312,43.1504 79.4979,44.9837 77.5,46C 78,46.5 78.5,47 79,47.5C 79.8373,45.9926 81.0039,45.4926 82.5,46C 81.9103,47.5095 81.2436,49.0095 80.5,50.5C 77.6511,49.9136 75.3178,48.5803 73.5,46.5C 73.2663,42.767 71.2663,40.9337 67.5,41C 61.6291,40.7688 55.7957,40.2688 50,39.5C 45.2206,40.0302 42.3873,42.6968 41.5,47.5C 41.3327,50.5584 41.666,53.725 42.5,57C 39.7348,61.4376 40.4015,65.271 44.5,68.5C 45.8629,70.9409 48.0296,72.2742 51,72.5C 55.8916,72.7781 61.0583,72.1114 66.5,70.5C 68.756,71.4209 69.756,73.0876 69.5,75.5C 71.4835,75.6168 73.1502,74.9501 74.5,73.5C 76.1634,74.8754 77.4968,74.542 78.5,72.5C 80.0284,73.8613 81.6951,75.028 83.5,76C 80.2103,75.6315 76.877,75.6315 73.5,76C 71.9411,76.9799 70.2744,77.8133 68.5,78.5C 67.5682,80.7954 66.7348,83.1287 66,85.5C 64.5135,84.2586 63.6801,84.7586 63.5,87C 63.6667,87.8333 63.8333,88.6667 64,89.5C 65.762,87.7384 67.5953,87.0717 69.5,87.5C 67.4648,95.1048 65.1315,102.605 62.5,110C 61.5,110.667 60.5,110.667 59.5,110C 57.2603,106.257 54.2603,103.424 50.5,101.5C 51.3764,101.631 52.0431,101.298 52.5,100.5C 51.3122,99.16 49.8122,98.4934 48,98.5C 42.9612,99.6005 38.7946,102.1 35.5,106C 36.8627,108.129 36.5294,108.629 34.5,107.5C 31.9285,108.728 30.5952,110.728 30.5,113.5C 27.1878,112.796 23.5212,112.796 19.5,113.5C 19.1667,113.833 18.8333,114.167 18.5,114.5C 19.7287,115.281 21.062,115.781 22.5,116C 19.6591,117.582 18.6591,119.749 19.5,122.5C 17.055,124.568 14.7217,126.735 12.5,129C 13.8331,130.84 13.6665,131.34 12,130.5C 9.7335,131.877 7.56684,133.044 5.5,134C 6.45805,132.853 6.12472,131.853 4.5,131C 6.99284,129.417 6.82618,127.917 4,126.5C 3.83333,123.667 3.66667,120.833 3.5,118C 3.31007,113.806 3.97674,109.806 5.5,106C 5.04265,105.586 4.70931,105.086 4.5,104.5C 5.52173,103.646 6.35506,102.646 7,101.5C 7.33333,96.8333 7.66667,92.1667 8,87.5C 10.5457,84.1403 12.3791,80.4736 13.5,76.5C 14.8333,76.5 16.1667,76.5 17.5,76.5C 17.3433,75.1266 17.51,73.7932 18,72.5C 19.016,73.6341 19.6827,73.3008 20,71.5C 22.3064,72.5815 23.8064,71.7482 24.5,69C 23.5227,67.503 22.5227,66.003 21.5,64.5C 22.3898,63.0445 22.3898,61.7112 21.5,60.5C 22.311,59.7836 22.9777,58.9503 23.5,58C 22.8132,56.8382 22.6466,55.6716 23,54.5C 27.6814,49.6515 32.5148,44.9848 37.5,40.5C 40.0955,36.0685 43.2622,32.0685 47,28.5C 47.4828,27.552 47.6495,26.552 47.5,25.5C 47.5,24.8333 47.8333,24.5 48.5,24.5C 49.2506,25.5735 50.2506,25.7401 51.5,25C 62.1005,16.6474 73.7671,12.4807 86.5,12.5C 82.7349,10.6646 83.0683,9.16456 87.5,8C 90.8333,7.33333 94.1667,7.33333 97.5,8C 98.676,9.91423 99.676,9.74756 100.5,7.5C 101.086,7.70931 101.586,8.04265 102,8.5C 108.302,7.56299 114.302,5.56299 120,2.5C 121.677,3.49127 123.343,4.49127 125,5.5C 127.667,2.83333 130.333,2.83333 133,5.5C 137.139,4.9664 141.472,4.63307 146,4.5C 148.835,5.41951 151.668,6.41951 154.5,7.5C 155.5,7 156.5,6.5 157.5,6C 156.584,5.72158 155.918,5.22158 155.5,4.5 Z M 230.5,64.5 C 231.167,64.8333 231.833,65.1667 232.5,65.5C 232.719,66.675 232.386,67.675 231.5,68.5C 230.571,67.3112 230.238,65.9778 230.5,64.5 Z"/></g>
<g><path style="opacity:0.486" fill="#8e97a0" d="M 109.5,0.5 C 109.5,0.166667 109.5,-0.166667 109.5,-0.5C 120.167,-0.5 130.833,-0.5 141.5,-0.5C 145.222,0.0976634 148.889,1.09766 152.5,2.5C 153.5,3.16667 154.5,3.83333 155.5,4.5C 140.393,0.935025 125.06,-0.398309 109.5,0.5 Z"/></g>
<g><path style="opacity:0.092" fill="#14161b" d="M 152.5,2.5 C 153.833,2.5 155.167,2.5 156.5,2.5C 156.833,3.16667 157.167,3.83333 157.5,4.5C 156.833,4.5 156.167,4.5 155.5,4.5C 154.5,3.83333 153.5,3.16667 152.5,2.5 Z"/></g>
<g><path style="opacity:0.016" fill="#000004" d="M 162.5,2.5 C 164.781,2.07729 166.448,2.74395 167.5,4.5C 165.833,4.5 164.167,4.5 162.5,4.5C 162.5,3.83333 162.5,3.16667 162.5,2.5 Z"/></g>
<g><path style="opacity:0.017" fill="#000000" d="M 73.5,4.5 C 73.5,5.16667 73.5,5.83333 73.5,6.5C 72.1667,6.5 70.8333,6.5 69.5,6.5C 69.3893,5.88258 69.056,5.38258 68.5,5C 70.1341,4.50649 71.8008,4.33982 73.5,4.5 Z"/></g>
<g><path style="opacity:0.017" fill="#000003" d="M 167.5,4.5 C 169.199,4.33982 170.866,4.50649 172.5,5C 171.944,5.38258 171.611,5.88258 171.5,6.5C 170.167,6.5 168.833,6.5 167.5,6.5C 167.5,5.83333 167.5,5.16667 167.5,4.5 Z"/></g>
<g><path style="opacity:0.013" fill="#010102" d="M 69.5,6.5 C 69.3284,7.49162 69.6618,8.15829 70.5,8.5C 70.1583,9.33825 69.4916,9.67158 68.5,9.5C 67.791,8.59603 66.791,8.26269 65.5,8.5C 65.3893,7.88258 65.056,7.38258 64.5,7C 66.1341,6.50649 67.8008,6.33982 69.5,6.5 Z"/></g>
<g><path style="opacity:0.014" fill="#000003" d="M 171.5,6.5 C 173.199,6.33982 174.866,6.50649 176.5,7C 175.944,7.38258 175.611,7.88258 175.5,8.5C 174.209,8.26269 173.209,8.59603 172.5,9.5C 171.508,9.67158 170.842,9.33825 170.5,8.5C 171.338,8.15829 171.672,7.49162 171.5,6.5 Z"/></g>
<g><path style="opacity:0.396" fill="#8d959e" d="M 163.5,6.5 C 164.833,6.5 166.167,6.5 167.5,6.5C 167.973,7.90632 168.973,8.57298 170.5,8.5C 170.842,9.33825 171.508,9.67158 172.5,9.5C 173.568,10.4345 174.901,10.7678 176.5,10.5C 176.821,12.0481 177.821,12.7148 179.5,12.5C 179.833,13.5 180.5,14.1667 181.5,14.5C 181.5,14.8333 181.5,15.1667 181.5,15.5C 175.636,12.7365 169.636,10.2365 163.5,8C 162.262,7.31001 162.262,6.81001 163.5,6.5 Z"/></g>
<g><path style="opacity:0.015" fill="#000000" d="M 65.5,8.5 C 65.1667,9.16667 64.8333,9.83333 64.5,10.5C 63.5,10.5 62.5,10.5 61.5,10.5C 62.1834,8.82351 63.5168,8.15684 65.5,8.5 Z"/></g>
<g><path style="opacity:0.015" fill="#000001" d="M 175.5,8.5 C 177.483,8.15684 178.817,8.82351 179.5,10.5C 178.5,10.5 177.5,10.5 176.5,10.5C 176.167,9.83333 175.833,9.16667 175.5,8.5 Z"/></g>
<g><path style="opacity:0.016" fill="#000000" d="M 61.5,10.5 C 61.5,11.1667 61.5,11.8333 61.5,12.5C 56.3706,11.3856 56.3706,10.719 61.5,10.5 Z"/></g>
<g><path style="opacity:0.016" fill="#000001" d="M 179.5,10.5 C 184.629,10.719 184.629,11.3856 179.5,12.5C 179.5,11.8333 179.5,11.1667 179.5,10.5 Z"/></g>
<g><path style="opacity:0.018" fill="#000001" d="M 57.5,14.5 C 56.5,14.5 55.5,14.5 54.5,14.5C 55.5,11.8333 56.5,11.8333 57.5,14.5 Z"/></g>
<g><path style="opacity:1" fill="#152636" d="M 91.5,1.5 C 93.9479,0.526933 96.6146,0.1936 99.5,0.5C 102.652,1.23904 105.985,1.23904 109.5,0.5C 125.06,-0.398309 140.393,0.935025 155.5,4.5C 155.918,5.22158 156.584,5.72158 157.5,6C 156.5,6.5 155.5,7 154.5,7.5C 151.668,6.41951 148.835,5.41951 146,4.5C 141.472,4.63307 137.139,4.9664 133,5.5C 130.333,2.83333 127.667,2.83333 125,5.5C 123.343,4.49127 121.677,3.49127 120,2.5C 114.302,5.56299 108.302,7.56299 102,8.5C 101.586,8.04265 101.086,7.70931 100.5,7.5C 99.676,9.74756 98.676,9.91423 97.5,8C 94.1667,7.33333 90.8333,7.33333 87.5,8C 83.0683,9.16456 82.7349,10.6646 86.5,12.5C 73.7671,12.4807 62.1005,16.6474 51.5,25C 50.2506,25.7401 49.2506,25.5735 48.5,24.5C 63.4042,13.2472 80.0708,5.74718 98.5,2C 96.1902,1.50335 93.8568,1.33669 91.5,1.5 Z"/></g>
<g><path style="opacity:0.018" fill="#000000" d="M 186.5,14.5 C 185.5,14.5 184.5,14.5 183.5,14.5C 184.5,11.8333 185.5,11.8333 186.5,14.5 Z"/></g>
<g><path style="opacity:0.018" fill="#000000" d="M 54.5,14.5 C 54.5,15.1667 54.5,15.8333 54.5,16.5C 50.7113,15.4039 50.7113,14.7373 54.5,14.5 Z"/></g>
<g><path style="opacity:0.018" fill="#000103" d="M 186.5,14.5 C 190.289,14.7373 190.289,15.4039 186.5,16.5C 186.5,15.8333 186.5,15.1667 186.5,14.5 Z"/></g>
<g><path style="opacity:0.016" fill="#000001" d="M 51.5,18.5 C 50.5,18.5 49.5,18.5 48.5,18.5C 49.5,15.8333 50.5,15.8333 51.5,18.5 Z"/></g>
<g><path style="opacity:0.016" fill="#000001" d="M 192.5,18.5 C 191.5,18.5 190.5,18.5 189.5,18.5C 190.5,15.8333 191.5,15.8333 192.5,18.5 Z"/></g>
<g><path style="opacity:0.224" fill="#4a5158" d="M 181.5,14.5 C 182.167,14.5 182.833,14.5 183.5,14.5C 183.821,16.0481 184.821,16.7148 186.5,16.5C 186.973,17.9063 187.973,18.573 189.5,18.5C 189.821,20.0481 190.821,20.7148 192.5,20.5C 192.821,22.0481 193.821,22.7148 195.5,22.5C 195.5,23.8333 196.167,24.5 197.5,24.5C 197.782,25.7777 198.449,26.7777 199.5,27.5C 198.833,27.5 198.5,27.8333 198.5,28.5C 192.975,23.9128 187.308,19.5795 181.5,15.5C 181.5,15.1667 181.5,14.8333 181.5,14.5 Z"/></g>
<g><path style="opacity:0.023" fill="#000000" d="M 48.5,18.5 C 48.5,19.1667 48.5,19.8333 48.5,20.5C 45.8333,19.8333 45.8333,19.1667 48.5,18.5 Z"/></g>
<g><path style="opacity:0.023" fill="#000000" d="M 192.5,18.5 C 195.167,19.1667 195.167,19.8333 192.5,20.5C 192.5,19.8333 192.5,19.1667 192.5,18.5 Z"/></g>
<g><path style="opacity:0.013" fill="#000000" d="M 45.5,22.5 C 44.8333,22.5 44.1667,22.5 43.5,22.5C 44.1667,19.8333 44.8333,19.8333 45.5,22.5 Z"/></g>
<g><path style="opacity:0.013" fill="#000001" d="M 197.5,22.5 C 196.833,22.5 196.167,22.5 195.5,22.5C 196.167,19.8333 196.833,19.8333 197.5,22.5 Z"/></g>
<g><path style="opacity:0.004" fill="#000000" d="M 40.5,22.5 C 39.8333,21.1667 39.8333,21.1667 40.5,22.5 Z"/></g>
<g><path style="opacity:0.004" fill="#000000" d="M 200.5,21.5 C 201.833,22.1667 201.833,22.1667 200.5,21.5 Z"/></g>
<g><path style="opacity:0.014" fill="#000000" d="M 40.5,22.5 C 41.5,22.5 42.5,22.5 43.5,22.5C 43.5,23.1667 43.5,23.8333 43.5,24.5C 40.5726,25.7573 38.2393,27.7573 36.5,30.5C 35.5,30.8333 34.8333,31.5 34.5,32.5C 33.8333,32.5 33.1667,32.5 32.5,32.5C 35.1667,29.1667 37.8333,25.8333 40.5,22.5 Z"/></g>
<g><path style="opacity:0.102" fill="#26262a" d="M 45.5,22.5 C 46.1667,22.5 46.8333,22.5 47.5,22.5C 47.1667,23.5 46.5,24.1667 45.5,24.5C 45.5,23.8333 45.5,23.1667 45.5,22.5 Z"/></g>
<g><path style="opacity:0.013" fill="#000003" d="M 197.5,22.5 C 198.5,22.5 199.5,22.5 200.5,22.5C 203.167,25.8333 205.833,29.1667 208.5,32.5C 207.833,32.5 207.167,32.5 206.5,32.5C 206.167,31.5 205.5,30.8333 204.5,30.5C 202.761,27.7573 200.427,25.7573 197.5,24.5C 197.5,23.8333 197.5,23.1667 197.5,22.5 Z"/></g>
<g><path style="opacity:0.043" fill="#8f9ba4" d="M 198.5,28.5 C 198.5,27.8333 198.833,27.5 199.5,27.5C 200.922,28.925 202.589,29.925 204.5,30.5C 204.5,31.8333 205.167,32.5 206.5,32.5C 206.5,33.8333 207.167,34.5 208.5,34.5C 208.5,35.8333 209.167,36.5 210.5,36.5C 211.075,38.4113 212.075,40.078 213.5,41.5C 213.565,41.9382 213.399,42.2716 213,42.5C 208.298,37.6301 203.465,32.9634 198.5,28.5 Z"/></g>
<g><path style="opacity:0.014" fill="#000001" d="M 32.5,32.5 C 32.5,33.1667 32.5,33.8333 32.5,34.5C 31.5,34.8333 30.8333,35.5 30.5,36.5C 27.7573,38.2393 25.7573,40.5726 24.5,43.5C 23.8333,43.5 23.1667,43.5 22.5,43.5C 22.5,42.5 22.5,41.5 22.5,40.5C 25.8333,37.8333 29.1667,35.1667 32.5,32.5 Z"/></g>
<g><path style="opacity:0.014" fill="#000002" d="M 208.5,32.5 C 211.833,35.1667 215.167,37.8333 218.5,40.5C 218.5,41.5 218.5,42.5 218.5,43.5C 217.833,43.5 217.167,43.5 216.5,43.5C 215.243,40.5726 213.243,38.2393 210.5,36.5C 210.167,35.5 209.5,34.8333 208.5,34.5C 208.5,33.8333 208.5,33.1667 208.5,32.5 Z"/></g>
<g><path style="opacity:0.004" fill="#000000" d="M 22.5,40.5 C 21.8333,39.1667 21.8333,39.1667 22.5,40.5 Z"/></g>
<g><path style="opacity:0.004" fill="#000000" d="M 218.5,39.5 C 219.833,40.1667 219.833,40.1667 218.5,39.5 Z"/></g>
<g><path style="opacity:0.013" fill="#000001" d="M 22.5,43.5 C 22.5,44.1667 22.5,44.8333 22.5,45.5C 19.8333,44.8333 19.8333,44.1667 22.5,43.5 Z"/></g>
<g><path style="opacity:0.013" fill="#000001" d="M 218.5,43.5 C 221.167,44.1667 221.167,44.8333 218.5,45.5C 218.5,44.8333 218.5,44.1667 218.5,43.5 Z"/></g>
<g><path style="opacity:0.023" fill="#000000" d="M 20.5,48.5 C 19.8333,48.5 19.1667,48.5 18.5,48.5C 19.1667,45.8333 19.8333,45.8333 20.5,48.5 Z"/></g>
<g><path style="opacity:0.102" fill="#141418" d="M 22.5,45.5 C 23.1667,45.5 23.8333,45.5 24.5,45.5C 24.1667,46.5 23.5,47.1667 22.5,47.5C 22.5,46.8333 22.5,46.1667 22.5,45.5 Z"/></g>
<g><path style="opacity:1" fill="#162a3c" d="M 240.5,141.5 C 240.806,144.385 240.473,147.052 239.5,149.5C 229.896,141.068 220.396,132.401 211,123.5C 205.761,114.908 201.261,105.908 197.5,96.5C 193.722,91.2196 189.389,86.3862 184.5,82C 183.5,81.3333 182.5,81.3333 181.5,82C 176.235,87.2626 171.735,93.0959 168,99.5C 166.989,100.337 165.822,100.67 164.5,100.5C 164.666,95.4889 164.499,90.4889 164,85.5C 163.25,84.8742 162.416,84.3742 161.5,84C 151.3,83.6918 141.3,85.0251 131.5,88C 121.522,89.2211 111.522,89.5545 101.5,89C 97.7235,88.4079 94.0569,87.4079 90.5,86C 86.0678,83.0353 81.5678,80.202 77,77.5C 72.8303,79.5126 70.3303,82.8459 69.5,87.5C 67.5953,87.0717 65.762,87.7384 64,89.5C 63.8333,88.6667 63.6667,87.8333 63.5,87C 63.6801,84.7586 64.5135,84.2586 66,85.5C 66.7348,83.1287 67.5682,80.7954 68.5,78.5C 70.2744,77.8133 71.9411,76.9799 73.5,76C 76.877,75.6315 80.2103,75.6315 83.5,76C 81.6951,75.028 80.0284,73.8613 78.5,72.5C 77.4968,74.542 76.1634,74.8754 74.5,73.5C 73.1502,74.9501 71.4835,75.6168 69.5,75.5C 69.756,73.0876 68.756,71.4209 66.5,70.5C 61.0583,72.1114 55.8916,72.7781 51,72.5C 48.0296,72.2742 45.8629,70.9409 44.5,68.5C 51.5469,69.9966 58.5469,69.8299 65.5,68C 60.3165,67.8261 55.3165,67.3261 50.5,66.5C 56.5,66.5 62.5,66.5 68.5,66.5C 69.3902,67.3622 70.3902,67.8622 71.5,68C 73.1022,66.0653 74.2689,63.8987 75,61.5C 75.0952,56.4644 74.5952,51.4644 73.5,46.5C 75.3178,48.5803 77.6511,49.9136 80.5,50.5C 81.2436,49.0095 81.9103,47.5095 82.5,46C 81.0039,45.4926 79.8373,45.9926 79,47.5C 78.5,47 78,46.5 77.5,46C 79.4979,44.9837 81.3312,43.1504 83,40.5C 83.6172,41.4491 83.4506,42.2825 82.5,43C 84.3615,44.0283 85.6948,45.5283 86.5,47.5C 86.9122,50.6159 86.4122,53.6159 85,56.5C 86.7105,54.0438 88.0438,51.3771 89,48.5C 93.6676,42.2945 99.8343,40.1278 107.5,42C 107.167,42.3333 106.833,42.6667 106.5,43C 103.635,43.1829 100.969,43.6829 98.5,44.5C 94.2742,51.2745 90.2742,58.2745 86.5,65.5C 90.5324,67.2846 93.8657,66.4512 96.5,63C 100.833,62.3333 105.167,62.3333 109.5,63C 112.134,66.4512 115.468,67.2846 119.5,65.5C 117.073,60.7801 114.74,56.1134 112.5,51.5C 112.709,50.0783 113.209,48.745 114,47.5C 116.487,49.1622 117.987,51.4955 118.5,54.5C 119.5,55.1667 120.5,55.8333 121.5,56.5C 123.529,55.3707 123.863,55.8707 122.5,58C 124,59.8333 125.5,61.6667 127,63.5C 127.319,56.8492 128.652,50.1825 131,43.5C 131.75,42.8742 132.584,42.3742 133.5,42C 138.833,41.3333 144.167,41.3333 149.5,42C 151.32,42.9794 152.487,44.4794 153,46.5C 154.833,45.3333 156.333,43.8333 157.5,42C 162.864,41.1705 168.198,41.3372 173.5,42.5C 174.098,43.7946 174.598,45.1279 175,46.5C 175.505,53.5387 175.505,60.5387 175,67.5C 177.289,65.4839 177.789,63.1506 176.5,60.5C 177.279,55.8867 177.779,51.22 178,46.5C 178.605,48.4812 179.605,48.8146 181,47.5C 181.957,51.0662 181.124,54.0662 178.5,56.5C 179.945,58.5218 181.612,60.3551 183.5,62C 177.646,63.1556 176.646,65.6556 180.5,69.5C 182.167,68.5 183.5,67.1667 184.5,65.5C 185.331,59.1928 185.831,52.8594 186,46.5C 186.667,45.1667 187.333,43.8333 188,42.5C 194.848,37.4739 199.181,39.1406 201,47.5C 201.667,53.5 201.667,59.5 201,65.5C 199.69,67.2926 199.19,69.1259 199.5,71C 200.167,71.6667 200.833,72.3333 201.5,73C 197.068,73.6228 196.735,74.6228 200.5,76C 199.328,76.4186 198.328,77.0853 197.5,78C 196.256,78.4561 195.423,77.9561 195,76.5C 194.667,77.1667 194.333,77.8333 194,78.5C 193.333,77.1667 192.667,77.1667 192,78.5C 191.333,79.5 191.333,80.5 192,81.5C 192.333,81.1667 192.667,80.8333 193,80.5C 195.113,82.2711 194.947,83.7711 192.5,85C 197.879,92.2498 202.379,100.083 206,108.5C 208.827,110.325 211.661,112.158 214.5,114C 213.483,115.049 213.316,116.216 214,117.5C 216.393,115.006 217.56,115.673 217.5,119.5C 215.473,119.338 213.473,119.505 211.5,120C 213.681,122.391 216.014,124.557 218.5,126.5C 219.5,126 220.5,125.5 221.5,125C 220.572,124.612 219.905,123.945 219.5,123C 219.974,121.392 220.641,121.226 221.5,122.5C 224.427,124.816 224.093,126.316 220.5,127C 220.616,128.268 220.949,129.602 221.5,131C 223.833,133 226.167,135 228.5,137C 232.728,138.195 236.728,139.695 240.5,141.5 Z"/></g>
<g><path style="opacity:1" fill="#f2f8fa" d="M 98.5,44.5 C 101.85,44.335 105.183,44.5017 108.5,45C 109.733,47.3143 111.067,49.4809 112.5,51.5C 114.74,56.1134 117.073,60.7801 119.5,65.5C 115.468,67.2846 112.134,66.4512 109.5,63C 105.167,62.3333 100.833,62.3333 96.5,63C 93.8657,66.4512 90.5324,67.2846 86.5,65.5C 90.2742,58.2745 94.2742,51.2745 98.5,44.5 Z"/></g>
<g><path style="opacity:1" fill="#e9f0f3" d="M 190.5,44.5 C 192.833,44.5 195.167,44.5 197.5,44.5C 197.5,51.8333 197.5,59.1667 197.5,66.5C 194.881,66.7683 192.381,66.435 190,65.5C 189.205,58.4197 189.372,51.4197 190.5,44.5 Z"/></g>
<g><path style="opacity:1" fill="#ecf4f6" d="M 165.5,62.5 C 166.809,58.6493 166.809,54.6493 165.5,50.5C 164.893,50.6236 164.56,50.9569 164.5,51.5C 162.347,55.8068 160.18,60.1401 158,64.5C 155.782,66.6187 153.282,66.952 150.5,65.5C 148.254,60.6743 145.754,56.0077 143,51.5C 142.501,56.4889 142.334,61.4889 142.5,66.5C 139.881,66.7683 137.381,66.435 135,65.5C 134.5,58.5079 134.334,51.5079 134.5,44.5C 138.846,44.3343 143.179,44.501 147.5,45C 149.643,48.786 151.643,52.6193 153.5,56.5C 156.107,52.868 158.44,49.0347 160.5,45C 164.486,44.5012 168.486,44.3345 172.5,44.5C 172.5,51.8333 172.5,59.1667 172.5,66.5C 170.167,66.5 167.833,66.5 165.5,66.5C 165.5,65.1667 165.5,63.8333 165.5,62.5 Z"/></g>
<g><path style="opacity:0.023" fill="#000001" d="M 222.5,48.5 C 221.833,48.5 221.167,48.5 220.5,48.5C 221.167,45.8333 221.833,45.8333 222.5,48.5 Z"/></g>
<g><path style="opacity:0.016" fill="#000001" d="M 18.5,48.5 C 18.5,49.5 18.5,50.5 18.5,51.5C 15.8333,50.5 15.8333,49.5 18.5,48.5 Z"/></g>
<g><path style="opacity:0.016" fill="#000001" d="M 222.5,48.5 C 225.167,49.5 225.167,50.5 222.5,51.5C 222.5,50.5 222.5,49.5 222.5,48.5 Z"/></g>
<g><path style="opacity:0.018" fill="#000001" d="M 16.5,54.5 C 15.8333,54.5 15.1667,54.5 14.5,54.5C 14.7373,50.7113 15.4039,50.7113 16.5,54.5 Z"/></g>
<g><path style="opacity:0.018" fill="#000003" d="M 226.5,54.5 C 225.833,54.5 225.167,54.5 224.5,54.5C 225.596,50.7113 226.263,50.7113 226.5,54.5 Z"/></g>
<g><path style="opacity:1" fill="#131f2e" d="M 73.5,46.5 C 74.5952,51.4644 75.0952,56.4644 75,61.5C 74.2689,63.8987 73.1022,66.0653 71.5,68C 70.3902,67.8622 69.3902,67.3622 68.5,66.5C 73.2668,62.7217 73.6001,58.555 69.5,54C 63.9562,52.5962 58.2896,52.0962 52.5,52.5C 52.5,51.5 52.5,50.5 52.5,49.5C 58.601,49.5445 64.601,50.0445 70.5,51C 71.8765,48.4598 71.2098,46.4598 68.5,45C 61.5,44.3333 54.5,44.3333 47.5,45C 42.7341,50.7571 43.7341,55.0904 50.5,58C 55.6789,58.0545 60.6789,58.7211 65.5,60C 63.5413,61.0963 61.3747,61.5963 59,61.5C 54.2471,60.3799 49.4138,59.7132 44.5,59.5C 44.0197,64.0168 46.0197,66.3502 50.5,66.5C 55.3165,67.3261 60.3165,67.8261 65.5,68C 58.5469,69.8299 51.5469,69.9966 44.5,68.5C 40.4015,65.271 39.7348,61.4376 42.5,57C 41.666,53.725 41.3327,50.5584 41.5,47.5C 42.3873,42.6968 45.2206,40.0302 50,39.5C 55.7957,40.2688 61.6291,40.7688 67.5,41C 71.2663,40.9337 73.2663,42.767 73.5,46.5 Z"/></g>
<g><path style="opacity:1" fill="#eff4f6" d="M 68.5,66.5 C 62.5,66.5 56.5,66.5 50.5,66.5C 46.0197,66.3502 44.0197,64.0168 44.5,59.5C 49.4138,59.7132 54.2471,60.3799 59,61.5C 61.3747,61.5963 63.5413,61.0963 65.5,60C 60.6789,58.7211 55.6789,58.0545 50.5,58C 43.7341,55.0904 42.7341,50.7571 47.5,45C 54.5,44.3333 61.5,44.3333 68.5,45C 71.2098,46.4598 71.8765,48.4598 70.5,51C 64.601,50.0445 58.601,49.5445 52.5,49.5C 52.5,50.5 52.5,51.5 52.5,52.5C 58.2896,52.0962 63.9562,52.5962 69.5,54C 73.6001,58.555 73.2668,62.7217 68.5,66.5 Z"/></g>
<g><path style="opacity:0.018" fill="#000001" d="M 14.5,54.5 C 14.5,55.5 14.5,56.5 14.5,57.5C 11.8333,56.5 11.8333,55.5 14.5,54.5 Z"/></g>
<g><path style="opacity:0.018" fill="#000003" d="M 226.5,54.5 C 229.167,55.5 229.167,56.5 226.5,57.5C 226.5,56.5 226.5,55.5 226.5,54.5 Z"/></g>
<g><path style="opacity:1" fill="#12161d" d="M 102.5,50.5 C 103.496,50.4142 104.329,50.7476 105,51.5C 105.837,53.3506 106.671,55.1839 107.5,57C 104.5,57.6667 101.5,57.6667 98.5,57C 99.719,54.7218 101.052,52.5551 102.5,50.5 Z"/></g>
<g><path style="opacity:0.702" fill="#a3aab0" d="M 91.5,1.5 C 93.8568,1.33669 96.1902,1.50335 98.5,2C 80.0708,5.74718 63.4042,13.2472 48.5,24.5C 47.8333,24.5 47.5,24.8333 47.5,25.5C 22.0338,45.4132 6.53376,71.4132 1,103.5C -0.00814336,116.744 0.491857,129.91 2.5,143C 2.68423,144.376 3.35089,145.209 4.5,145.5C 3.79105,146.404 2.79105,146.737 1.5,146.5C 1.5,147.5 1.5,148.5 1.5,149.5C 0.833333,146.833 0.166667,144.167 -0.5,141.5C -0.5,127.5 -0.5,113.5 -0.5,99.5C 0.416538,94.5252 1.41654,89.5252 2.5,84.5C 4.27983,83.0101 4.94649,81.0101 4.5,78.5C 6.21321,77.3646 6.87988,75.698 6.5,73.5C 7.90632,73.0269 8.57298,72.0269 8.5,70.5C 9.33825,70.1583 9.67158,69.4916 9.5,68.5C 10.4345,67.4324 10.7678,66.099 10.5,64.5C 12.0481,64.1788 12.7148,63.1788 12.5,61.5C 14.1042,60.713 14.7709,59.3797 14.5,57.5C 16.0481,57.1788 16.7148,56.1788 16.5,54.5C 17.9063,54.0269 18.573,53.0269 18.5,51.5C 20.0481,51.1788 20.7148,50.1788 20.5,48.5C 21.4916,48.6716 22.1583,48.3382 22.5,47.5C 23.5,47.1667 24.1667,46.5 24.5,45.5C 24.5,44.8333 24.5,44.1667 24.5,43.5C 27.1897,41.8065 29.1897,39.4732 30.5,36.5C 31.8333,36.5 32.5,35.8333 32.5,34.5C 33.8333,34.5 34.5,33.8333 34.5,32.5C 35.8333,32.5 36.5,31.8333 36.5,30.5C 39.4732,29.1897 41.8065,27.1897 43.5,24.5C 44.1667,24.5 44.8333,24.5 45.5,24.5C 46.5,24.1667 47.1667,23.5 47.5,22.5C 48.3382,22.1583 48.6716,21.4916 48.5,20.5C 50.1788,20.7148 51.1788,20.0481 51.5,18.5C 53.0269,18.573 54.0269,17.9063 54.5,16.5C 56.1788,16.7148 57.1788,16.0481 57.5,14.5C 59.3797,14.7709 60.713,14.1042 61.5,12.5C 63.1788,12.7148 64.1788,12.0481 64.5,10.5C 66.099,10.7678 67.4324,10.4345 68.5,9.5C 69.4916,9.67158 70.1583,9.33825 70.5,8.5C 72.0269,8.57298 73.0269,7.90632 73.5,6.5C 75.698,6.87988 77.3646,6.21321 78.5,4.5C 80.1667,4.5 81.8333,4.5 83.5,4.5C 85.403,4.20414 87.0697,3.53747 88.5,2.5C 89.609,2.44312 90.609,2.10978 91.5,1.5 Z"/></g>
<g><path style="opacity:1" fill="#8c989f" d="M 164.5,51.5 C 164.56,50.9569 164.893,50.6236 165.5,50.5C 166.809,54.6493 166.809,58.6493 165.5,62.5C 165.815,58.6286 165.482,54.9619 164.5,51.5 Z"/></g>
<g><path style="opacity:0.016" fill="#000000" d="M 12.5,61.5 C 11.8333,61.5 11.1667,61.5 10.5,61.5C 10.719,56.3706 11.3856,56.3706 12.5,61.5 Z"/></g>
<g><path style="opacity:0.018" fill="#000005" d="M 230.5,61.5 C 229.833,61.5 229.167,61.5 228.5,61.5C 229.614,56.3706 230.281,56.3706 230.5,61.5 Z"/></g>
<g><path style="opacity:0.015" fill="#000001" d="M 10.5,61.5 C 10.5,62.5 10.5,63.5 10.5,64.5C 9.83333,64.8333 9.16667,65.1667 8.5,65.5C 8.15684,63.5168 8.82351,62.1834 10.5,61.5 Z"/></g>
<g><path style="opacity:0.013" fill="#000105" d="M 230.5,61.5 C 232.176,62.1834 232.843,63.5168 232.5,65.5C 231.833,65.1667 231.167,64.8333 230.5,64.5C 230.5,63.5 230.5,62.5 230.5,61.5 Z"/></g>
<g><path style="opacity:0.018" fill="#000000" d="M 8.5,65.5 C 8.26269,66.791 8.59603,67.791 9.5,68.5C 9.67158,69.4916 9.33825,70.1583 8.5,70.5C 8.15829,69.6618 7.49162,69.3284 6.5,69.5C 6.33982,67.8008 6.50649,66.1341 7,64.5C 7.38258,65.056 7.88258,65.3893 8.5,65.5 Z"/></g>
<g><path style="opacity:0.017" fill="#000001" d="M 6.5,69.5 C 6.5,70.8333 6.5,72.1667 6.5,73.5C 5.83333,73.5 5.16667,73.5 4.5,73.5C 4.33982,71.8008 4.50649,70.1341 5,68.5C 5.38258,69.056 5.88258,69.3893 6.5,69.5 Z"/></g>
<g><path style="opacity:0.017" fill="#000004" d="M 236.5,73.5 C 235.833,73.5 235.167,73.5 234.5,73.5C 234.5,72.1667 234.5,70.8333 234.5,69.5C 235.117,69.3893 235.617,69.056 236,68.5C 236.494,70.1341 236.66,71.8008 236.5,73.5 Z"/></g>
<g><path style="opacity:1" fill="#17293a" d="M 47.5,25.5 C 47.6495,26.552 47.4828,27.552 47,28.5C 43.2622,32.0685 40.0955,36.0685 37.5,40.5C 32.5148,44.9848 27.6814,49.6515 23,54.5C 22.6466,55.6716 22.8132,56.8382 23.5,58C 22.9777,58.9503 22.311,59.7836 21.5,60.5C 22.3898,61.7112 22.3898,63.0445 21.5,64.5C 22.5227,66.003 23.5227,67.503 24.5,69C 23.8064,71.7482 22.3064,72.5815 20,71.5C 19.6827,73.3008 19.016,73.6341 18,72.5C 17.51,73.7932 17.3433,75.1266 17.5,76.5C 16.1667,76.5 14.8333,76.5 13.5,76.5C 12.3791,80.4736 10.5457,84.1403 8,87.5C 7.66667,92.1667 7.33333,96.8333 7,101.5C 6.35506,102.646 5.52173,103.646 4.5,104.5C 4.70931,105.086 5.04265,105.586 5.5,106C 3.97674,109.806 3.31007,113.806 3.5,118C 3.66667,120.833 3.83333,123.667 4,126.5C 6.82618,127.917 6.99284,129.417 4.5,131C 6.12472,131.853 6.45805,132.853 5.5,134C 7.56684,133.044 9.7335,131.877 12,130.5C 13.6665,131.34 13.8331,130.84 12.5,129C 14.7217,126.735 17.055,124.568 19.5,122.5C 18.6591,119.749 19.6591,117.582 22.5,116C 21.062,115.781 19.7287,115.281 18.5,114.5C 18.8333,114.167 19.1667,113.833 19.5,113.5C 23.5212,112.796 27.1878,112.796 30.5,113.5C 30.5952,110.728 31.9285,108.728 34.5,107.5C 36.5294,108.629 36.8627,108.129 35.5,106C 38.7946,102.1 42.9612,99.6005 48,98.5C 49.8122,98.4934 51.3122,99.16 52.5,100.5C 52.0431,101.298 51.3764,101.631 50.5,101.5C 47.0722,101.547 44.0722,102.713 41.5,105C 29.3008,118.696 16.9674,132.196 4.5,145.5C 3.35089,145.209 2.68423,144.376 2.5,143C 0.491857,129.91 -0.00814336,116.744 1,103.5C 6.53376,71.4132 22.0338,45.4132 47.5,25.5 Z"/></g>
<g><path style="opacity:0.016" fill="#000000" d="M 4.5,73.5 C 4.5,75.1667 4.5,76.8333 4.5,78.5C 3.83333,78.5 3.16667,78.5 2.5,78.5C 2.07729,76.2188 2.74395,74.5521 4.5,73.5 Z"/></g>
<g><path style="opacity:0.017" fill="#000003" d="M 236.5,73.5 C 238.256,74.5521 238.923,76.2188 238.5,78.5C 237.833,78.5 237.167,78.5 236.5,78.5C 236.5,76.8333 236.5,75.1667 236.5,73.5 Z"/></g>
<g><path style="opacity:0.017" fill="#000000" d="M 2.5,78.5 C 2.5,80.5 2.5,82.5 2.5,84.5C 1.27493,83.8478 0.608263,82.6811 0.5,81C 0.666667,79.8333 0.833333,78.6667 1,77.5C 1.38258,78.056 1.88258,78.3893 2.5,78.5 Z"/></g>
<g><path style="opacity:0.017" fill="#000004" d="M 238.5,84.5 C 238.5,82.5 238.5,80.5 238.5,78.5C 239.117,78.3893 239.617,78.056 240,77.5C 240.167,78.6667 240.333,79.8333 240.5,81C 240.392,82.6811 239.725,83.8478 238.5,84.5 Z"/></g>
<g><path style="opacity:1" fill="#f8f9e6" d="M 231.5,171.5 C 231.5,171.833 231.5,172.167 231.5,172.5C 230.662,172.842 230.328,173.508 230.5,174.5C 229.883,174.611 229.383,174.944 229,175.5C 227.767,171.24 225.267,167.74 221.5,165C 214.663,160.747 207.663,156.747 200.5,153C 195.622,148.052 191.622,142.552 188.5,136.5C 187.914,134.16 186.914,131.993 185.5,130C 184.167,129.333 182.833,129.333 181.5,130C 175.532,136.969 169.199,143.636 162.5,150C 158.848,150.499 155.182,150.665 151.5,150.5C 150.416,141.496 148.082,132.829 144.5,124.5C 142.833,124.167 141.167,123.833 139.5,123.5C 122.512,124.261 105.512,124.761 88.5,125C 82.5585,131.608 77.3918,138.775 73,146.5C 69.4909,151.838 64.6576,153.672 58.5,152C 55.612,148.778 53.112,145.278 51,141.5C 49.9505,140.483 48.7839,140.316 47.5,141C 44.2489,146.255 40.2489,150.922 35.5,155C 28.3333,160.167 21.1667,165.333 14,170.5C 13.0589,172.989 13.5589,174.989 15.5,176.5C 15.5,176.833 15.5,177.167 15.5,177.5C 15.7678,179.099 15.4345,180.432 14.5,181.5C 14.1667,180.5 13.5,179.833 12.5,179.5C 12.7148,177.821 12.0481,176.821 10.5,176.5C 10.7678,174.901 10.4345,173.568 9.5,172.5C 9.67158,171.508 9.33825,170.842 8.5,170.5C 8.5,169.833 8.5,169.167 8.5,168.5C 8.35055,167.448 8.51722,166.448 9,165.5C 9.33333,165.833 9.66667,166.167 10,166.5C 11.4389,164.725 12.4389,162.725 13,160.5C 14.6667,161.167 16.3333,161.833 18,162.5C 20.5829,161.126 23.0829,159.626 25.5,158C 28.3903,153.608 32.0569,150.108 36.5,147.5C 39.175,143.665 42.0083,139.998 45,136.5C 46.9233,135.198 48.7566,135.365 50.5,137C 54.0626,140.233 57.8959,143.067 62,145.5C 64.1351,144.873 66.3018,144.373 68.5,144C 71.0086,140.79 73.842,137.957 77,135.5C 78,133.167 79,130.833 80,128.5C 83.828,125.585 87.828,122.919 92,120.5C 96.0917,121.346 100.258,122.012 104.5,122.5C 113.263,122.44 122.097,122.106 131,121.5C 135.917,121.423 140.75,121.923 145.5,123C 148.66,128.762 150.826,134.928 152,141.5C 153.268,144.598 155.601,146.265 159,146.5C 165.182,144.982 169.516,141.315 172,135.5C 174.795,133.707 177.295,131.54 179.5,129C 181.695,127.627 184.029,127.294 186.5,128C 190.474,131.296 193.474,135.463 195.5,140.5C 196.908,141.243 198.241,142.077 199.5,143C 198.167,144 198.167,145 199.5,146C 203.28,148.449 207.28,150.449 211.5,152C 217.135,156.633 222.468,161.633 227.5,167C 228.448,167.483 229.448,167.649 230.5,167.5C 230.232,169.099 230.566,170.432 231.5,171.5 Z"/></g>
<g><path style="opacity:1" fill="#a8aa64" d="M 188.5,136.5 C 189.158,142.975 191.825,148.475 196.5,153C 201.167,156.333 205.833,159.667 210.5,163C 219.499,163.234 224.499,167.734 225.5,176.5C 224.221,180.777 221.554,183.777 217.5,185.5C 215.974,185.006 214.641,184.339 213.5,183.5C 213.938,183.565 214.272,183.399 214.5,183C 211.6,179.727 208.267,177.894 204.5,177.5C 204.863,178.183 205.196,178.85 205.5,179.5C 200.461,182.551 196.461,186.717 193.5,192C 185.898,196.463 178.231,200.629 170.5,204.5C 170.833,205.167 171.167,205.833 171.5,206.5C 169.415,210.533 166.082,212.533 161.5,212.5C 157.941,213.817 154.275,214.817 150.5,215.5C 150.167,214.833 149.833,214.167 149.5,213.5C 142.947,217.777 136.114,219.11 129,217.5C 126.444,221.137 123.444,221.47 120,218.5C 114.593,219.473 109.093,219.807 103.5,219.5C 104.491,217.877 103.824,216.877 101.5,216.5C 94.357,214.281 87.0237,212.781 79.5,212C 77.5,211 75.5,210 73.5,209C 72.6705,207.184 71.8372,205.351 71,203.5C 65.887,200.387 61.387,196.554 57.5,192C 54.2942,192.801 50.9608,193.135 47.5,193C 48.6168,189.927 48.7835,186.76 48,183.5C 42.7864,173.057 35.7864,171.724 27,179.5C 26.3333,181.5 25.6667,183.5 25,185.5C 23.9326,184.809 22.7659,184.309 21.5,184C 20.0016,181.336 18.0016,179.17 15.5,177.5C 15.5,177.167 15.5,176.833 15.5,176.5C 15.2865,174.856 15.6198,173.356 16.5,172C 25.3645,164.076 35.0311,157.409 45.5,152C 49.8391,147.062 53.5057,147.729 56.5,154C 63.6496,157.835 69.8163,156.669 75,150.5C 78.7924,142.065 84.2924,134.899 91.5,129C 106.277,128.263 121.277,127.097 136.5,125.5C 139.895,125.653 142.728,126.986 145,129.5C 146.391,136.844 147.891,144.178 149.5,151.5C 154.88,152.995 160.213,152.828 165.5,151C 170.035,145.881 174.368,140.548 178.5,135C 182.38,132.747 185.713,133.247 188.5,136.5 Z"/></g>
<g><path style="opacity:1" fill="#eef8f8" d="M 239.5,149.5 C 238.631,151.717 238.298,154.05 238.5,156.5C 236.72,157.99 236.054,159.99 236.5,162.5C 235.5,162.833 234.833,163.5 234.5,164.5C 233.326,165.514 232.66,166.847 232.5,168.5C 232.5,169.167 232.5,169.833 232.5,170.5C 231.833,170.5 231.5,170.833 231.5,171.5C 230.566,170.432 230.232,169.099 230.5,167.5C 229.448,167.649 228.448,167.483 227.5,167C 222.468,161.633 217.135,156.633 211.5,152C 207.28,150.449 203.28,148.449 199.5,146C 198.167,145 198.167,144 199.5,143C 198.241,142.077 196.908,141.243 195.5,140.5C 193.474,135.463 190.474,131.296 186.5,128C 184.029,127.294 181.695,127.627 179.5,129C 177.295,131.54 174.795,133.707 172,135.5C 169.516,141.315 165.182,144.982 159,146.5C 155.601,146.265 153.268,144.598 152,141.5C 150.826,134.928 148.66,128.762 145.5,123C 140.75,121.923 135.917,121.423 131,121.5C 122.097,122.106 113.263,122.44 104.5,122.5C 100.258,122.012 96.0917,121.346 92,120.5C 87.828,122.919 83.828,125.585 80,128.5C 79,130.833 78,133.167 77,135.5C 73.842,137.957 71.0086,140.79 68.5,144C 66.3018,144.373 64.1351,144.873 62,145.5C 57.8959,143.067 54.0626,140.233 50.5,137C 48.7566,135.365 46.9233,135.198 45,136.5C 42.0083,139.998 39.175,143.665 36.5,147.5C 32.0569,150.108 28.3903,153.608 25.5,158C 23.0829,159.626 20.5829,161.126 18,162.5C 16.3333,161.833 14.6667,161.167 13,160.5C 12.4389,162.725 11.4389,164.725 10,166.5C 9.66667,166.167 9.33333,165.833 9,165.5C 8.51722,166.448 8.35055,167.448 8.5,168.5C 7.83333,168.167 7.16667,167.833 6.5,167.5C 6.87988,165.302 6.21321,163.635 4.5,162.5C 4.94649,159.99 4.27983,157.99 2.5,156.5C 2.70197,154.05 2.36863,151.717 1.5,149.5C 1.5,148.5 1.5,147.5 1.5,146.5C 2.79105,146.737 3.79105,146.404 4.5,145.5C 16.9674,132.196 29.3008,118.696 41.5,105C 44.0722,102.713 47.0722,101.547 50.5,101.5C 54.2603,103.424 57.2603,106.257 59.5,110C 60.5,110.667 61.5,110.667 62.5,110C 65.1315,102.605 67.4648,95.1048 69.5,87.5C 70.3303,82.8459 72.8303,79.5126 77,77.5C 81.5678,80.202 86.0678,83.0353 90.5,86C 94.0569,87.4079 97.7235,88.4079 101.5,89C 111.522,89.5545 121.522,89.2211 131.5,88C 141.3,85.0251 151.3,83.6918 161.5,84C 162.416,84.3742 163.25,84.8742 164,85.5C 164.499,90.4889 164.666,95.4889 164.5,100.5C 165.822,100.67 166.989,100.337 168,99.5C 171.735,93.0959 176.235,87.2626 181.5,82C 182.5,81.3333 183.5,81.3333 184.5,82C 189.389,86.3862 193.722,91.2196 197.5,96.5C 201.261,105.908 205.761,114.908 211,123.5C 220.396,132.401 229.896,141.068 239.5,149.5 Z"/></g>
<g><path style="opacity:1" fill="#6fa2a7" d="M 180.5,88.5 C 181.978,88.238 183.311,88.5713 184.5,89.5C 191.01,96.1837 195.177,104.184 197,113.5C 204.863,127.033 215.197,138.366 228,147.5C 229.033,150.217 228.2,152.051 225.5,153C 221.467,154.04 217.801,153.374 214.5,151C 204.59,140.993 195.756,130.159 188,118.5C 186.938,117.101 185.605,116.101 184,115.5C 177.203,121.966 170.703,128.799 164.5,136C 162.305,137.373 159.971,137.706 157.5,137C 155.239,134.228 153.739,131.062 153,127.5C 152.737,122.995 151.737,118.661 150,114.5C 148.527,112.993 146.693,112.326 144.5,112.5C 141.102,113.03 137.768,113.863 134.5,115C 117.167,115.333 99.8333,115.667 82.5,116C 77.8757,122.748 73.3757,129.581 69,136.5C 67.1667,138.333 65.3333,140.167 63.5,142C 59.835,142.387 57.0016,140.887 55,137.5C 53.8459,133.498 51.5126,130.498 48,128.5C 46.0561,129.439 44.3894,130.773 43,132.5C 38.3049,141.738 31.4716,148.905 22.5,154C 19.2397,154.784 16.0731,154.617 13,153.5C 12.3333,151.5 12.3333,149.5 13,147.5C 22.3448,132.82 33.1781,119.32 45.5,107C 46.8333,106.333 48.1667,106.333 49.5,107C 52.5314,109.559 54.6981,112.726 56,116.5C 59.3113,120.527 62.3113,120.193 65,115.5C 69.0411,108.583 73.2078,101.75 77.5,95C 80.1667,94.3333 82.8333,94.3333 85.5,95C 88.7302,96.308 92.0636,97.308 95.5,98C 106.82,99.0736 118.154,99.4069 129.5,99C 135.526,96.4023 141.693,94.2357 148,92.5C 152.735,92.5651 155.735,94.8985 157,99.5C 157.539,102.529 158.206,105.529 159,108.5C 159.347,110.18 160.347,111.18 162,111.5C 163.944,110.561 165.611,109.227 167,107.5C 171.331,101.01 175.831,94.6762 180.5,88.5 Z"/></g>
<g><path style="opacity:1" fill="#a9ab77" d="M 188.5,136.5 C 185.713,133.247 182.38,132.747 178.5,135C 174.368,140.548 170.035,145.881 165.5,151C 160.213,152.828 154.88,152.995 149.5,151.5C 147.891,144.178 146.391,136.844 145,129.5C 142.728,126.986 139.895,125.653 136.5,125.5C 121.277,127.097 106.277,128.263 91.5,129C 84.2924,134.899 78.7924,142.065 75,150.5C 69.8163,156.669 63.6496,157.835 56.5,154C 53.5057,147.729 49.8391,147.062 45.5,152C 35.0311,157.409 25.3645,164.076 16.5,172C 15.6198,173.356 15.2865,174.856 15.5,176.5C 13.5589,174.989 13.0589,172.989 14,170.5C 21.1667,165.333 28.3333,160.167 35.5,155C 40.2489,150.922 44.2489,146.255 47.5,141C 48.7839,140.316 49.9505,140.483 51,141.5C 53.112,145.278 55.612,148.778 58.5,152C 64.6576,153.672 69.4909,151.838 73,146.5C 77.3918,138.775 82.5585,131.608 88.5,125C 105.512,124.761 122.512,124.261 139.5,123.5C 141.167,123.833 142.833,124.167 144.5,124.5C 148.082,132.829 150.416,141.496 151.5,150.5C 155.182,150.665 158.848,150.499 162.5,150C 169.199,143.636 175.532,136.969 181.5,130C 182.833,129.333 184.167,129.333 185.5,130C 186.914,131.993 187.914,134.16 188.5,136.5 Z"/></g>
<g><path style="opacity:0.017" fill="#000000" d="M 2.5,156.5 C 2.5,158.5 2.5,160.5 2.5,162.5C 1.88258,162.611 1.38258,162.944 1,163.5C 0.833333,162.333 0.666667,161.167 0.5,160C 0.608263,158.319 1.27493,157.152 2.5,156.5 Z"/></g>
<g><path style="opacity:0.017" fill="#000000" d="M 238.5,156.5 C 239.725,157.152 240.392,158.319 240.5,160C 240.333,161.167 240.167,162.333 240,163.5C 239.617,162.944 239.117,162.611 238.5,162.5C 238.5,160.5 238.5,158.5 238.5,156.5 Z"/></g>
<g><path style="opacity:0.016" fill="#000000" d="M 2.5,162.5 C 3.16667,162.5 3.83333,162.5 4.5,162.5C 4.5,164.167 4.5,165.833 4.5,167.5C 2.74395,166.448 2.07729,164.781 2.5,162.5 Z"/></g>
<g><path style="opacity:0.016" fill="#000000" d="M 236.5,162.5 C 237.167,162.5 237.833,162.5 238.5,162.5C 238.923,164.781 238.256,166.448 236.5,167.5C 236.5,165.833 236.5,164.167 236.5,162.5 Z"/></g>
<g><path style="opacity:0.017" fill="#000000" d="M 4.5,167.5 C 5.16667,167.5 5.83333,167.5 6.5,167.5C 6.5,168.833 6.5,170.167 6.5,171.5C 5.88258,171.611 5.38258,171.944 5,172.5C 4.50649,170.866 4.33982,169.199 4.5,167.5 Z"/></g>
<g><path style="opacity:0.02" fill="#71716f" d="M 234.5,164.5 C 234.5,165.5 234.5,166.5 234.5,167.5C 233.833,167.833 233.167,168.167 232.5,168.5C 232.66,166.847 233.326,165.514 234.5,164.5 Z"/></g>
<g><path style="opacity:0.017" fill="#000000" d="M 234.5,167.5 C 235.167,167.5 235.833,167.5 236.5,167.5C 236.66,169.199 236.494,170.866 236,172.5C 235.617,171.944 235.117,171.611 234.5,171.5C 234.5,170.167 234.5,168.833 234.5,167.5 Z"/></g>
<g><path style="opacity:0.018" fill="#000000" d="M 232.5,170.5 C 232.842,171.338 233.508,171.672 234.5,171.5C 234.66,173.199 234.494,174.866 234,176.5C 233.617,175.944 233.117,175.611 232.5,175.5C 232.737,174.209 232.404,173.209 231.5,172.5C 231.5,172.167 231.5,171.833 231.5,171.5C 231.5,170.833 231.833,170.5 232.5,170.5 Z"/></g>
<g><path style="opacity:0.013" fill="#050605" d="M 8.5,170.5 C 9.33825,170.842 9.67158,171.508 9.5,172.5C 8.59603,173.209 8.26269,174.209 8.5,175.5C 7.88258,175.611 7.38258,175.944 7,176.5C 6.50649,174.866 6.33982,173.199 6.5,171.5C 7.49162,171.672 8.15829,171.338 8.5,170.5 Z"/></g>
<g><path style="opacity:0.015" fill="#000000" d="M 8.5,175.5 C 9.16667,175.833 9.83333,176.167 10.5,176.5C 10.5,177.5 10.5,178.5 10.5,179.5C 8.82351,178.817 8.15684,177.483 8.5,175.5 Z"/></g>
<g><path style="opacity:0.015" fill="#000000" d="M 232.5,175.5 C 232.843,177.483 232.176,178.817 230.5,179.5C 230.5,178.5 230.5,177.5 230.5,176.5C 231.167,176.167 231.833,175.833 232.5,175.5 Z"/></g>
<g><path style="opacity:0.016" fill="#000000" d="M 10.5,179.5 C 11.1667,179.5 11.8333,179.5 12.5,179.5C 11.3856,184.629 10.719,184.629 10.5,179.5 Z"/></g>
<g><path style="opacity:1" fill="#21280c" d="M 213.5,183.5 C 210.605,182.601 207.938,181.267 205.5,179.5C 205.196,178.85 204.863,178.183 204.5,177.5C 208.267,177.894 211.6,179.727 214.5,183C 214.272,183.399 213.938,183.565 213.5,183.5 Z"/></g>
<g><path style="opacity:0.016" fill="#000000" d="M 228.5,179.5 C 229.167,179.5 229.833,179.5 230.5,179.5C 230.281,184.629 229.614,184.629 228.5,179.5 Z"/></g>
<g><path style="opacity:0.018" fill="#000000" d="M 14.5,183.5 C 14.5,184.5 14.5,185.5 14.5,186.5C 11.8333,185.5 11.8333,184.5 14.5,183.5 Z"/></g>
<g><path style="opacity:0.018" fill="#000000" d="M 226.5,183.5 C 229.167,184.5 229.167,185.5 226.5,186.5C 226.5,185.5 226.5,184.5 226.5,183.5 Z"/></g>
<g><path style="opacity:0.018" fill="#000000" d="M 14.5,186.5 C 15.1667,186.5 15.8333,186.5 16.5,186.5C 15.4039,190.289 14.7373,190.289 14.5,186.5 Z"/></g>
<g><path style="opacity:0.035" fill="#1c1b16" d="M 224.5,184.5 C 224.5,185.167 224.5,185.833 224.5,186.5C 223.833,186.833 223.167,187.167 222.5,187.5C 222.427,185.973 223.094,184.973 224.5,184.5 Z"/></g>
<g><path style="opacity:0.018" fill="#000000" d="M 224.5,186.5 C 225.167,186.5 225.833,186.5 226.5,186.5C 226.263,190.289 225.596,190.289 224.5,186.5 Z"/></g>
<g><path style="opacity:0.031" fill="#2a2b23" d="M 18.5,187.5 C 19.5,187.833 20.1667,188.5 20.5,189.5C 19.8333,189.5 19.1667,189.5 18.5,189.5C 18.5,188.833 18.5,188.167 18.5,187.5 Z"/></g>
<g><path style="opacity:0.031" fill="#181711" d="M 222.5,187.5 C 222.5,188.167 222.5,188.833 222.5,189.5C 221.833,189.5 221.167,189.5 220.5,189.5C 220.833,188.5 221.5,187.833 222.5,187.5 Z"/></g>
<g><path style="opacity:0.016" fill="#000000" d="M 18.5,189.5 C 18.5,190.5 18.5,191.5 18.5,192.5C 15.8333,191.5 15.8333,190.5 18.5,189.5 Z"/></g>
<g><path style="opacity:0.016" fill="#000000" d="M 222.5,189.5 C 225.167,190.5 225.167,191.5 222.5,192.5C 222.5,191.5 222.5,190.5 222.5,189.5 Z"/></g>
<g><path style="opacity:0.041" fill="#1d1d19" d="M 220.5,190.5 C 220.5,191.167 220.5,191.833 220.5,192.5C 219.833,192.5 219.167,192.5 218.5,192.5C 218.833,191.5 219.5,190.833 220.5,190.5 Z"/></g>
<g><path style="opacity:0.023" fill="#000000" d="M 18.5,192.5 C 19.1667,192.5 19.8333,192.5 20.5,192.5C 19.8333,195.167 19.1667,195.167 18.5,192.5 Z"/></g>
<g><path style="opacity:0.023" fill="#000000" d="M 220.5,192.5 C 221.167,192.5 221.833,192.5 222.5,192.5C 221.833,195.167 221.167,195.167 220.5,192.5 Z"/></g>
<g><path style="opacity:0.008" fill="#1f1e19" d="M 22.5,193.5 C 23.5,193.833 24.1667,194.5 24.5,195.5C 23.8333,195.5 23.1667,195.5 22.5,195.5C 22.5,194.833 22.5,194.167 22.5,193.5 Z"/></g>
<g><path style="opacity:0.008" fill="#191812" d="M 218.5,193.5 C 218.5,194.167 218.5,194.833 218.5,195.5C 217.833,195.5 217.167,195.5 216.5,195.5C 216.833,194.5 217.5,193.833 218.5,193.5 Z"/></g>
<g><path style="opacity:0.013" fill="#000000" d="M 22.5,195.5 C 22.5,196.167 22.5,196.833 22.5,197.5C 19.8333,196.833 19.8333,196.167 22.5,195.5 Z"/></g>
<g><path style="opacity:0.013" fill="#000000" d="M 218.5,195.5 C 221.167,196.167 221.167,196.833 218.5,197.5C 218.5,196.833 218.5,196.167 218.5,195.5 Z"/></g>
<g><path style="opacity:0.014" fill="#000000" d="M 22.5,197.5 C 23.1667,197.5 23.8333,197.5 24.5,197.5C 25.7573,200.427 27.7573,202.761 30.5,204.5C 30.8333,205.5 31.5,206.167 32.5,206.5C 32.5,207.167 32.5,207.833 32.5,208.5C 29.1667,205.833 25.8333,203.167 22.5,200.5C 22.5,199.5 22.5,198.5 22.5,197.5 Z"/></g>
<g><path style="opacity:0.014" fill="#000000" d="M 216.5,197.5 C 217.167,197.5 217.833,197.5 218.5,197.5C 218.5,198.5 218.5,199.5 218.5,200.5C 215.167,203.167 211.833,205.833 208.5,208.5C 208.5,207.833 208.5,207.167 208.5,206.5C 209.5,206.167 210.167,205.5 210.5,204.5C 213.243,202.761 215.243,200.427 216.5,197.5 Z"/></g>
<g><path style="opacity:0.004" fill="#000000" d="M 22.5,200.5 C 21.8333,201.167 21.8333,201.167 22.5,200.5 Z"/></g>
<g><path style="opacity:0.004" fill="#000000" d="M 218.5,200.5 C 219.833,201.167 219.833,201.167 218.5,200.5 Z"/></g>
<g><path style="opacity:0.561" fill="#d4d5ad" d="M 213.5,199.5 C 212.075,200.922 211.075,202.589 210.5,204.5C 209.167,204.5 208.5,205.167 208.5,206.5C 207.167,206.5 206.5,207.167 206.5,208.5C 205.167,208.5 204.5,209.167 204.5,210.5C 202.589,211.075 200.922,212.075 199.5,213.5C 199.062,213.565 198.728,213.399 198.5,213C 203.023,207.48 207.856,202.313 213,197.5C 213.464,198.094 213.631,198.761 213.5,199.5 Z"/></g>
<g><path style="opacity:0.014" fill="#000000" d="M 32.5,208.5 C 33.1667,208.5 33.8333,208.5 34.5,208.5C 34.8333,209.5 35.5,210.167 36.5,210.5C 38.2393,213.243 40.5726,215.243 43.5,216.5C 43.5,217.167 43.5,217.833 43.5,218.5C 42.5,218.5 41.5,218.5 40.5,218.5C 37.8333,215.167 35.1667,211.833 32.5,208.5 Z"/></g>
<g><path style="opacity:0.014" fill="#000000" d="M 206.5,208.5 C 207.167,208.5 207.833,208.5 208.5,208.5C 205.833,211.833 203.167,215.167 200.5,218.5C 199.5,218.5 198.5,218.5 197.5,218.5C 197.5,217.833 197.5,217.167 197.5,216.5C 200.427,215.243 202.761,213.243 204.5,210.5C 205.5,210.167 206.167,209.5 206.5,208.5 Z"/></g>
<g><path style="opacity:0.996" fill="#bebd96" d="M 72.5,232.5 C 71.8333,232.5 71.1667,232.5 70.5,232.5C 70.1583,231.662 69.4916,231.328 68.5,231.5C 67.4324,230.566 66.099,230.232 64.5,230.5C 64.1788,228.952 63.1788,228.285 61.5,228.5C 60.713,226.896 59.3797,226.229 57.5,226.5C 57.1788,224.952 56.1788,224.285 54.5,224.5C 54.0269,223.094 53.0269,222.427 51.5,222.5C 51.1788,220.952 50.1788,220.285 48.5,220.5C 48.6716,219.508 48.3382,218.842 47.5,218.5C 47.1667,217.5 46.5,216.833 45.5,216.5C 44.8333,216.5 44.1667,216.5 43.5,216.5C 41.8065,213.81 39.4732,211.81 36.5,210.5C 36.5,209.167 35.8333,208.5 34.5,208.5C 34.5,207.167 33.8333,206.5 32.5,206.5C 32.5,205.167 31.8333,204.5 30.5,204.5C 29.1897,201.527 27.1897,199.193 24.5,197.5C 24.5,196.833 24.5,196.167 24.5,195.5C 24.1667,194.5 23.5,193.833 22.5,193.5C 22.1583,192.662 21.4916,192.328 20.5,192.5C 20.5,191.5 20.5,190.5 20.5,189.5C 20.1667,188.5 19.5,187.833 18.5,187.5C 18.3433,186.127 18.51,184.793 19,183.5C 20.7512,186.92 23.4179,189.254 27,190.5C 29.2423,197.946 33.409,204.112 39.5,209C 45.6726,210.507 50.0059,214.173 52.5,220C 55.5256,220.69 58.359,221.857 61,223.5C 62.1618,222.813 63.3284,222.647 64.5,223C 64.1667,223.333 63.8333,223.667 63.5,224C 65.7458,225.257 67.0791,227.09 67.5,229.5C 69.8309,229.498 71.8309,230.331 73.5,232C 73.2716,232.399 72.9382,232.565 72.5,232.5 Z"/></g>
<g><path style="opacity:1" fill="#a4a973" d="M 188.5,136.5 C 191.622,142.552 195.622,148.052 200.5,153C 207.663,156.747 214.663,160.747 221.5,165C 225.267,167.74 227.767,171.24 229,175.5C 229.383,174.944 229.883,174.611 230.5,174.5C 230.5,175.167 230.5,175.833 230.5,176.5C 228.952,176.821 228.285,177.821 228.5,179.5C 226.896,180.287 226.229,181.62 226.5,183.5C 225.508,183.328 224.842,183.662 224.5,184.5C 223.094,184.973 222.427,185.973 222.5,187.5C 221.5,187.833 220.833,188.5 220.5,189.5C 220.5,189.833 220.5,190.167 220.5,190.5C 219.5,190.833 218.833,191.5 218.5,192.5C 218.5,192.833 218.5,193.167 218.5,193.5C 217.5,193.833 216.833,194.5 216.5,195.5C 216.5,196.167 216.5,196.833 216.5,197.5C 215.222,197.782 214.222,198.449 213.5,199.5C 213.631,198.761 213.464,198.094 213,197.5C 207.856,202.313 203.023,207.48 198.5,213C 198.728,213.399 199.062,213.565 199.5,213.5C 198.449,214.222 197.782,215.222 197.5,216.5C 196.833,216.5 196.167,216.5 195.5,216.5C 194.5,216.833 193.833,217.5 193.5,218.5C 192.662,218.842 192.328,219.508 192.5,220.5C 191.5,220.5 190.5,220.5 189.5,220.5C 188.005,220.989 186.671,221.655 185.5,222.5C 182.381,223.317 179.381,224.317 176.5,225.5C 176.611,224.883 176.944,224.383 177.5,224C 174.238,222.571 171.405,223.405 169,226.5C 167.984,225.366 167.317,225.699 167,227.5C 166.439,226.978 165.772,226.645 165,226.5C 163.333,227.5 161.667,228.5 160,229.5C 158.238,229.056 158.405,228.556 160.5,228C 156.986,228.795 153.653,230.295 150.5,232.5C 149.14,231.82 147.807,231.153 146.5,230.5C 144.819,227.418 144.152,224.085 144.5,220.5C 143.022,220.238 141.689,220.571 140.5,221.5C 141.127,224.657 142.127,227.657 143.5,230.5C 142.432,231.434 141.099,231.768 139.5,231.5C 139.167,228.833 138.833,226.167 138.5,223.5C 136.5,223.5 134.5,223.5 132.5,223.5C 135.035,221.876 137.868,220.543 141,219.5C 146.415,218.907 151.748,217.907 157,216.5C 158.699,215.296 160.199,213.962 161.5,212.5C 166.082,212.533 169.415,210.533 171.5,206.5C 171.167,205.833 170.833,205.167 170.5,204.5C 178.231,200.629 185.898,196.463 193.5,192C 196.461,186.717 200.461,182.551 205.5,179.5C 207.938,181.267 210.605,182.601 213.5,183.5C 214.641,184.339 215.974,185.006 217.5,185.5C 221.554,183.777 224.221,180.777 225.5,176.5C 224.499,167.734 219.499,163.234 210.5,163C 205.833,159.667 201.167,156.333 196.5,153C 191.825,148.475 189.158,142.975 188.5,136.5 Z"/></g>
<g><path style="opacity:1" fill="#3e491b" d="M 182.5,201.5 C 186.08,203.408 189.08,206.074 191.5,209.5C 190.635,210.583 189.635,210.749 188.5,210C 185.619,207.721 183.619,204.888 182.5,201.5 Z"/></g>
<g><path style="opacity:1" fill="#2d3b13" d="M 177.5,204.5 C 178.552,204.351 179.552,204.517 180.5,205C 182.291,207.414 183.957,209.914 185.5,212.5C 184.635,213.583 183.635,213.749 182.5,213C 180.432,210.358 178.765,207.525 177.5,204.5 Z"/></g>
<g><path style="opacity:1" fill="#37461d" d="M 189.5,197.5 C 192.652,196.959 195.152,197.959 197,200.5C 197.591,201.483 197.257,202.15 196,202.5C 194.832,201.491 193.665,200.491 192.5,199.5C 192.167,199.833 191.833,200.167 191.5,200.5C 192.5,202.167 193.833,203.5 195.5,204.5C 194.635,205.583 193.635,205.749 192.5,205C 189.156,203.233 188.156,200.733 189.5,197.5 Z"/></g>
<g><path style="opacity:1" fill="#3f4b26" d="M 198.5,189.5 C 203.395,190.57 205.062,193.403 203.5,198C 198.647,199.13 196.147,197.296 196,192.5C 196.698,191.309 197.531,190.309 198.5,189.5 Z"/></g>
<g><path style="opacity:1" fill="#414a23" d="M 203.5,182.5 C 206.342,183.172 208.842,184.506 211,186.5C 211.934,191.083 210.1,192.583 205.5,191C 201.303,188.825 200.637,185.991 203.5,182.5 Z"/></g>
<g><path style="opacity:1" fill="#35431d" d="M 172.5,209.5 C 177.388,210.443 179.055,213.276 177.5,218C 176.207,218.49 174.873,218.657 173.5,218.5C 173.679,216.046 173.013,213.879 171.5,212C 171.743,211.098 172.077,210.265 172.5,209.5 Z"/></g>
<g><path style="opacity:0.008" fill="#292920" d="M 45.5,216.5 C 46.5,216.833 47.1667,217.5 47.5,218.5C 46.8333,218.5 46.1667,218.5 45.5,218.5C 45.5,217.833 45.5,217.167 45.5,216.5 Z"/></g>
<g><path style="opacity:1" fill="#899462" d="M 101.5,216.5 C 103.824,216.877 104.491,217.877 103.5,219.5C 100.752,219.402 100.086,220.402 101.5,222.5C 100.631,224.717 100.298,227.05 100.5,229.5C 96.3751,229.369 92.0418,229.036 87.5,228.5C 87.2322,226.901 87.5655,225.568 88.5,224.5C 88.5,225.5 88.5,226.5 88.5,227.5C 89.5,227.5 90.5,227.5 91.5,227.5C 91.5758,224.027 92.2424,220.694 93.5,217.5C 96.3854,217.806 99.0521,217.473 101.5,216.5 Z"/></g>
<g><path style="opacity:0.008" fill="#1b1d14" d="M 195.5,216.5 C 195.5,217.167 195.5,217.833 195.5,218.5C 194.833,218.5 194.167,218.5 193.5,218.5C 193.833,217.5 194.5,216.833 195.5,216.5 Z"/></g>
<g><path style="opacity:0.004" fill="#000000" d="M 40.5,218.5 C 39.8333,219.167 39.8333,219.167 40.5,218.5 Z"/></g>
<g><path style="opacity:0.013" fill="#000000" d="M 43.5,218.5 C 44.1667,218.5 44.8333,218.5 45.5,218.5C 44.8333,221.167 44.1667,221.167 43.5,218.5 Z"/></g>
<g><path style="opacity:1" fill="#a7ab6f" d="M 161.5,212.5 C 160.199,213.962 158.699,215.296 157,216.5C 151.748,217.907 146.415,218.907 141,219.5C 137.868,220.543 135.035,221.876 132.5,223.5C 132.5,226.167 132.5,228.833 132.5,231.5C 134.833,231.5 137.167,231.5 139.5,231.5C 141.099,231.768 142.432,231.434 143.5,230.5C 144.5,230.5 145.5,230.5 146.5,230.5C 147.807,231.153 149.14,231.82 150.5,232.5C 153.653,230.295 156.986,228.795 160.5,228C 158.405,228.556 158.238,229.056 160,229.5C 161.667,228.5 163.333,227.5 165,226.5C 165.772,226.645 166.439,226.978 167,227.5C 167.317,225.699 167.984,225.366 169,226.5C 171.405,223.405 174.238,222.571 177.5,224C 176.944,224.383 176.611,224.883 176.5,225.5C 173.602,227.404 170.602,229.237 167.5,231C 163.403,232.734 159.069,233.734 154.5,234C 152.004,235.08 149.67,236.414 147.5,238C 148.448,238.483 149.448,238.649 150.5,238.5C 150.389,239.117 150.056,239.617 149.5,240C 146.635,240.183 143.969,240.683 141.5,241.5C 127.5,241.5 113.5,241.5 99.5,241.5C 94.5252,240.583 89.5252,239.583 84.5,238.5C 84.1667,237.5 83.5,236.833 82.5,236.5C 81.0697,235.463 79.403,234.796 77.5,234.5C 77.1667,234.5 76.8333,234.5 76.5,234.5C 76.0825,233.778 75.4158,233.278 74.5,233C 82.4689,231.735 90.4689,231.402 98.5,232C 101,233.167 103.5,234.333 106,235.5C 109.411,234.707 112.911,234.207 116.5,234C 118.961,231.703 121.294,229.203 123.5,226.5C 121.833,224.833 120.167,223.167 118.5,221.5C 113.053,221.54 107.72,221.873 102.5,222.5C 102.167,222.5 101.833,222.5 101.5,222.5C 100.086,220.402 100.752,219.402 103.5,219.5C 109.093,219.807 114.593,219.473 120,218.5C 123.444,221.47 126.444,221.137 129,217.5C 136.114,219.11 142.947,217.777 149.5,213.5C 149.833,214.167 150.167,214.833 150.5,215.5C 154.275,214.817 157.941,213.817 161.5,212.5 Z"/></g>
<g><path style="opacity:0.013" fill="#000000" d="M 195.5,218.5 C 196.167,218.5 196.833,218.5 197.5,218.5C 196.833,221.167 196.167,221.167 195.5,218.5 Z"/></g>
<g><path style="opacity:0.004" fill="#000000" d="M 200.5,218.5 C 201.833,219.167 201.833,219.167 200.5,218.5 Z"/></g>
<g><path style="opacity:0.023" fill="#000000" d="M 48.5,220.5 C 48.5,221.167 48.5,221.833 48.5,222.5C 45.8333,221.833 45.8333,221.167 48.5,220.5 Z"/></g>
<g><path style="opacity:1" fill="#394618" d="M 157.5,217.5 C 159.693,219.522 160.693,222.189 160.5,225.5C 159.5,225.5 158.5,225.5 157.5,225.5C 157.683,223.064 157.016,220.897 155.5,219C 156.416,218.722 157.082,218.222 157.5,217.5 Z"/></g>
<g><path style="opacity:1" fill="#48512d" d="M 165.5,213.5 C 166.675,213.281 167.675,213.614 168.5,214.5C 173.457,221.264 171.957,223.598 164,221.5C 163.654,219.782 163.154,218.115 162.5,216.5C 163.34,215.265 164.34,214.265 165.5,213.5 Z"/></g>
<g><path style="opacity:0.023" fill="#000000" d="M 192.5,220.5 C 195.167,221.167 195.167,221.833 192.5,222.5C 192.5,221.833 192.5,221.167 192.5,220.5 Z"/></g>
<g><path style="opacity:0.329" fill="#626350" d="M 189.5,220.5 C 189.5,221.167 189.5,221.833 189.5,222.5C 187.973,222.427 186.973,223.094 186.5,224.5C 185.833,224.5 185.167,224.5 184.5,224.5C 184.833,223.833 185.167,223.167 185.5,222.5C 186.671,221.655 188.005,220.989 189.5,220.5 Z"/></g>
<g><path style="opacity:0.016" fill="#000000" d="M 48.5,222.5 C 49.5,222.5 50.5,222.5 51.5,222.5C 50.5,225.167 49.5,225.167 48.5,222.5 Z"/></g>
<g><path style="opacity:0.016" fill="#000000" d="M 189.5,222.5 C 190.5,222.5 191.5,222.5 192.5,222.5C 191.5,225.167 190.5,225.167 189.5,222.5 Z"/></g>
<g><path style="opacity:1" fill="#394320" d="M 149.5,219.5 C 150.978,219.238 152.311,219.571 153.5,220.5C 154.393,223.084 154.726,225.751 154.5,228.5C 152.5,228.5 150.5,228.5 148.5,228.5C 148.264,225.391 148.597,222.391 149.5,219.5 Z"/></g>
<g><path style="opacity:0.018" fill="#000000" d="M 54.5,224.5 C 54.5,225.167 54.5,225.833 54.5,226.5C 50.7113,226.263 50.7113,225.596 54.5,224.5 Z"/></g>
<g><path style="opacity:0.018" fill="#000000" d="M 186.5,224.5 C 190.289,225.596 190.289,226.263 186.5,226.5C 186.5,225.833 186.5,225.167 186.5,224.5 Z"/></g>
<g><path style="opacity:1" fill="#414b21" d="M 93.5,217.5 C 92.2424,220.694 91.5758,224.027 91.5,227.5C 90.5,227.5 89.5,227.5 88.5,227.5C 88.5,226.5 88.5,225.5 88.5,224.5C 89.4682,222.393 89.8016,220.059 89.5,217.5C 90.8333,217.5 92.1667,217.5 93.5,217.5 Z"/></g>
<g><path style="opacity:0.018" fill="#000000" d="M 54.5,226.5 C 55.5,226.5 56.5,226.5 57.5,226.5C 56.5,229.167 55.5,229.167 54.5,226.5 Z"/></g>
<g><path style="opacity:1" fill="#49522f" d="M 132.5,223.5 C 134.5,223.5 136.5,223.5 138.5,223.5C 138.833,226.167 139.167,228.833 139.5,231.5C 137.167,231.5 134.833,231.5 132.5,231.5C 132.5,228.833 132.5,226.167 132.5,223.5 Z"/></g>
<g><path style="opacity:1" fill="#404c25" d="M 146.5,230.5 C 145.5,230.5 144.5,230.5 143.5,230.5C 142.127,227.657 141.127,224.657 140.5,221.5C 141.689,220.571 143.022,220.238 144.5,220.5C 144.152,224.085 144.819,227.418 146.5,230.5 Z"/></g>
<g><path style="opacity:0.018" fill="#000000" d="M 183.5,226.5 C 184.5,226.5 185.5,226.5 186.5,226.5C 185.5,229.167 184.5,229.167 183.5,226.5 Z"/></g>
<g><path style="opacity:1" fill="#4a5426" d="M 125.5,221.5 C 126.833,221.5 128.167,221.5 129.5,221.5C 129.5,225.167 129.5,228.833 129.5,232.5C 128.167,232.5 126.833,232.5 125.5,232.5C 125.5,228.833 125.5,225.167 125.5,221.5 Z"/></g>
<g><path style="opacity:0.016" fill="#000000" d="M 61.5,228.5 C 61.5,229.167 61.5,229.833 61.5,230.5C 56.3706,230.281 56.3706,229.614 61.5,228.5 Z"/></g>
<g><path style="opacity:0.016" fill="#000000" d="M 179.5,228.5 C 184.629,229.614 184.629,230.281 179.5,230.5C 179.5,229.833 179.5,229.167 179.5,228.5 Z"/></g>
<g><path style="opacity:0.015" fill="#000000" d="M 61.5,230.5 C 62.5,230.5 63.5,230.5 64.5,230.5C 64.8333,231.167 65.1667,231.833 65.5,232.5C 63.5168,232.843 62.1834,232.176 61.5,230.5 Z"/></g>
<g><path style="opacity:0.987" fill="#a5aa71" d="M 101.5,216.5 C 99.0521,217.473 96.3854,217.806 93.5,217.5C 92.1667,217.5 90.8333,217.5 89.5,217.5C 89.8016,220.059 89.4682,222.393 88.5,224.5C 87.5655,225.568 87.2322,226.901 87.5,228.5C 92.0418,229.036 96.3751,229.369 100.5,229.5C 102.088,231.616 104.088,231.949 106.5,230.5C 107.393,227.916 107.726,225.249 107.5,222.5C 105.833,222.5 104.167,222.5 102.5,222.5C 107.72,221.873 113.053,221.54 118.5,221.5C 120.167,223.167 121.833,224.833 123.5,226.5C 121.294,229.203 118.961,231.703 116.5,234C 112.911,234.207 109.411,234.707 106,235.5C 103.5,234.333 101,233.167 98.5,232C 90.4689,231.402 82.4689,231.735 74.5,233C 75.4158,233.278 76.0825,233.778 76.5,234.5C 75.5,234.5 74.5,234.5 73.5,234.5C 73.1667,233.833 72.8333,233.167 72.5,232.5C 72.9382,232.565 73.2716,232.399 73.5,232C 71.8309,230.331 69.8309,229.498 67.5,229.5C 67.0791,227.09 65.7458,225.257 63.5,224C 63.8333,223.667 64.1667,223.333 64.5,223C 63.3284,222.647 62.1618,222.813 61,223.5C 58.359,221.857 55.5256,220.69 52.5,220C 50.0059,214.173 45.6726,210.507 39.5,209C 33.409,204.112 29.2423,197.946 27,190.5C 23.4179,189.254 20.7512,186.92 19,183.5C 18.51,184.793 18.3433,186.127 18.5,187.5C 17.8333,187.167 17.1667,186.833 16.5,186.5C 16.7148,184.821 16.0481,183.821 14.5,183.5C 14.5,182.833 14.5,182.167 14.5,181.5C 15.4345,180.432 15.7678,179.099 15.5,177.5C 18.0016,179.17 20.0016,181.336 21.5,184C 22.7659,184.309 23.9326,184.809 25,185.5C 25.6667,183.5 26.3333,181.5 27,179.5C 35.7864,171.724 42.7864,173.057 48,183.5C 48.7835,186.76 48.6168,189.927 47.5,193C 50.9608,193.135 54.2942,192.801 57.5,192C 61.387,196.554 65.887,200.387 71,203.5C 71.8372,205.351 72.6705,207.184 73.5,209C 75.5,210 77.5,211 79.5,212C 87.0237,212.781 94.357,214.281 101.5,216.5 Z"/></g>
<g><path style="opacity:1" fill="#3c4924" d="M 112.5,223.5 C 114.144,223.286 115.644,223.62 117,224.5C 117.497,226.81 117.663,229.143 117.5,231.5C 112.557,231.712 111.89,230.712 115.5,228.5C 112.564,227.606 111.564,225.939 112.5,223.5 Z"/></g>
<g><path style="opacity:1" fill="#4d5732" d="M 101.5,222.5 C 101.833,222.5 102.167,222.5 102.5,222.5C 104.167,222.5 105.833,222.5 107.5,222.5C 107.726,225.249 107.393,227.916 106.5,230.5C 104.088,231.949 102.088,231.616 100.5,229.5C 100.298,227.05 100.631,224.717 101.5,222.5 Z"/></g>
<g><path style="opacity:1" fill="#3e4923" d="M 74.5,213.5 C 78.5776,214.137 82.4109,215.47 86,217.5C 86.1699,219.845 85.8365,222.179 85,224.5C 82.2136,226.184 80.3802,225.517 79.5,222.5C 80.6511,220.675 81.3178,218.675 81.5,216.5C 78.1903,216.461 75.5237,217.794 73.5,220.5C 73.1667,220.167 72.8333,219.833 72.5,219.5C 73.7472,217.677 74.4139,215.677 74.5,213.5 Z"/></g>
<g><path style="opacity:1" fill="#404c2a" d="M 67.5,209.5 C 69.9124,209.244 71.5791,210.244 72.5,212.5C 71.2967,217.379 68.2967,220.046 63.5,220.5C 63.4703,216.253 64.8037,212.586 67.5,209.5 Z"/></g>
<g><path style="opacity:1" fill="#3d481c" d="M 64.5,203.5 C 65.3764,203.369 66.0431,203.702 66.5,204.5C 64.5179,207.81 62.1846,210.81 59.5,213.5C 58.4173,212.635 58.2506,211.635 59,210.5C 60.6665,208.004 62.4998,205.671 64.5,203.5 Z"/></g>
<g><path style="opacity:1" fill="#3a4a32" d="M 53.5,195.5 C 54.5,195.5 55.5,195.5 56.5,195.5C 56.5,196.833 56.5,198.167 56.5,199.5C 58.8273,199.247 60.8273,199.914 62.5,201.5C 60.31,203.856 58.31,206.356 56.5,209C 55.5,209.667 54.5,209.667 53.5,209C 51.5296,206.684 49.1963,204.851 46.5,203.5C 48.8558,200.814 51.1891,198.147 53.5,195.5 Z"/></g>
<g><path style="opacity:1" fill="#2b371e" d="M 43.5,185.5 C 44.5,185.5 45.5,185.5 46.5,185.5C 46.0567,189.713 44.0567,193.046 40.5,195.5C 39.5713,194.311 39.238,192.978 39.5,191.5C 38.1667,191.5 36.8333,191.5 35.5,191.5C 35.5,190.5 35.5,189.5 35.5,188.5C 38.4432,188.02 41.1098,187.02 43.5,185.5 Z"/></g>
<g><path style="opacity:1" fill="#505732" d="M 35.5,176.5 C 37.1667,176.5 38.8333,176.5 40.5,176.5C 40.8146,178.226 40.9813,179.893 41,181.5C 38.56,183.622 35.8934,185.289 33,186.5C 29.5005,186.485 28.1672,184.818 29,181.5C 31.352,179.97 33.5187,178.303 35.5,176.5 Z"/></g>
<g><path style="opacity:0.015" fill="#000000" d="M 176.5,230.5 C 177.5,230.5 178.5,230.5 179.5,230.5C 178.817,232.176 177.483,232.843 175.5,232.5C 175.833,231.833 176.167,231.167 176.5,230.5 Z"/></g>
<g><path style="opacity:0.013" fill="#040300" d="M 68.5,231.5 C 69.4916,231.328 70.1583,231.662 70.5,232.5C 69.6618,232.842 69.3284,233.508 69.5,234.5C 67.8008,234.66 66.1341,234.494 64.5,234C 65.056,233.617 65.3893,233.117 65.5,232.5C 66.791,232.737 67.791,232.404 68.5,231.5 Z"/></g>
<g><path style="opacity:0.018" fill="#0c0c0a" d="M 169.5,232.5 C 170.209,231.596 171.209,231.263 172.5,231.5C 173.209,232.404 174.209,232.737 175.5,232.5C 175.611,233.117 175.944,233.617 176.5,234C 174.866,234.494 173.199,234.66 171.5,234.5C 171.5,233.167 170.833,232.5 169.5,232.5 Z"/></g>
<g><path style="opacity:0.812" fill="#bfc199" d="M 185.5,222.5 C 185.167,223.167 184.833,223.833 184.5,224.5C 183.662,224.842 183.328,225.508 183.5,226.5C 181.62,226.229 180.287,226.896 179.5,228.5C 177.821,228.285 176.821,228.952 176.5,230.5C 174.901,230.232 173.568,230.566 172.5,231.5C 171.209,231.263 170.209,231.596 169.5,232.5C 168.5,232.833 167.833,233.5 167.5,234.5C 166.167,234.5 164.833,234.5 163.5,234.5C 161.302,234.875 159.302,235.542 157.5,236.5C 155.214,236.595 153.214,237.262 151.5,238.5C 151.167,238.5 150.833,238.5 150.5,238.5C 149.448,238.649 148.448,238.483 147.5,238C 149.67,236.414 152.004,235.08 154.5,234C 159.069,233.734 163.403,232.734 167.5,231C 170.602,229.237 173.602,227.404 176.5,225.5C 179.381,224.317 182.381,223.317 185.5,222.5 Z"/></g>
<g><path style="opacity:0.017" fill="#000000" d="M 69.5,234.5 C 70.8333,234.5 72.1667,234.5 73.5,234.5C 73.5,235.167 73.5,235.833 73.5,236.5C 71.8008,236.66 70.1341,236.494 68.5,236C 69.056,235.617 69.3893,235.117 69.5,234.5 Z"/></g>
<g><path style="opacity:0.017" fill="#000000" d="M 167.5,234.5 C 168.833,234.5 170.167,234.5 171.5,234.5C 171.611,235.117 171.944,235.617 172.5,236C 170.866,236.494 169.199,236.66 167.5,236.5C 167.5,235.833 167.5,235.167 167.5,234.5 Z"/></g>
<g><path style="opacity:0.059" fill="#25241b" d="M 77.5,234.5 C 79.403,234.796 81.0697,235.463 82.5,236.5C 81.1667,236.5 79.8333,236.5 78.5,236.5C 78.1667,235.833 77.8333,235.167 77.5,234.5 Z"/></g>
<g><path style="opacity:0.08" fill="#1d1e15" d="M 163.5,234.5 C 163.167,235.167 162.833,235.833 162.5,236.5C 160.833,236.5 159.167,236.5 157.5,236.5C 159.302,235.542 161.302,234.875 163.5,234.5 Z"/></g>
<g><path style="opacity:0.016" fill="#000000" d="M 73.5,236.5 C 75.1667,236.5 76.8333,236.5 78.5,236.5C 78.5,237.167 78.5,237.833 78.5,238.5C 76.2188,238.923 74.5521,238.256 73.5,236.5 Z"/></g>
<g><path style="opacity:0.016" fill="#000000" d="M 162.5,236.5 C 164.167,236.5 165.833,236.5 167.5,236.5C 166.448,238.256 164.781,238.923 162.5,238.5C 162.5,237.833 162.5,237.167 162.5,236.5 Z"/></g>
<g><path style="opacity:0.073" fill="#202018" d="M 157.5,236.5 C 157.167,237.167 156.833,237.833 156.5,238.5C 154.833,238.5 153.167,238.5 151.5,238.5C 153.214,237.262 155.214,236.595 157.5,236.5 Z"/></g>
<g><path style="opacity:0.017" fill="#000000" d="M 78.5,238.5 C 80.5,238.5 82.5,238.5 84.5,238.5C 83.8478,239.725 82.6811,240.392 81,240.5C 79.8333,240.333 78.6667,240.167 77.5,240C 78.056,239.617 78.3893,239.117 78.5,238.5 Z"/></g>
<g><path style="opacity:0.017" fill="#000000" d="M 156.5,238.5 C 158.5,238.5 160.5,238.5 162.5,238.5C 162.611,239.117 162.944,239.617 163.5,240C 162.333,240.167 161.167,240.333 160,240.5C 158.319,240.392 157.152,239.725 156.5,238.5 Z"/></g>
</svg>
