<?xml version="1.0" encoding="UTF-8"?>
<!DOCTYPE svg PUBLIC "-//W3C//DTD SVG 1.1//EN" "http://www.w3.org/Graphics/SVG/1.1/DTD/svg11.dtd">
<svg xmlns="http://www.w3.org/2000/svg" version="1.1" width="225px" height="126px" style="shape-rendering:geometricPrecision; text-rendering:geometricPrecision; image-rendering:optimizeQuality; fill-rule:evenodd; clip-rule:evenodd" xmlns:xlink="http://www.w3.org/1999/xlink">
<g><path style="opacity:1" fill="#192f43" d="M 106.5,-0.5 C 110.167,-0.5 113.833,-0.5 117.5,-0.5C 142.514,2.77788 160.014,16.1112 170,39.5C 173.95,51.7296 174.45,64.0629 171.5,76.5C 166.521,72.6886 161.688,68.6886 157,64.5C 153.72,60.3419 151.387,55.6753 150,50.5C 148.951,48.3825 147.451,46.7158 145.5,45.5C 145.5,44.8333 145.167,44.5 144.5,44.5C 143.167,41.8333 141.833,41.8333 140.5,44.5C 140.167,45.1667 139.833,45.8333 139.5,46.5C 138.833,46.5 138.5,46.8333 138.5,47.5C 137.833,47.5 137.5,47.8333 137.5,48.5C 137.5,48.8333 137.5,49.1667 137.5,49.5C 136.833,49.5 136.5,49.8333 136.5,50.5C 135.833,50.5 135.5,50.8333 135.5,51.5C 134.833,51.5 134.5,51.8333 134.5,52.5C 133.883,52.3893 133.383,52.056 133,51.5C 132.503,48.854 132.336,46.1873 132.5,43.5C 124.351,44.5448 116.185,45.5448 108,46.5C 101.19,46.7449 95.1896,44.7449 90,40.5C 89.228,40.6448 88.5613,40.9781 88,41.5C 86.5148,46.1076 85.3481,50.7742 84.5,55.5C 83.8333,55.5 83.5,55.8333 83.5,56.5C 80.9158,56.4312 78.9158,55.2645 77.5,53C 75.9343,52.235 74.6009,52.4017 73.5,53.5C 72.8333,53.5 72.5,53.8333 72.5,54.5C 71.8333,54.5 71.5,54.8333 71.5,55.5C 70.8333,55.5 70.5,55.8333 70.5,56.5C 69.8333,56.5 69.5,56.8333 69.5,57.5C 68.8333,57.5 68.5,57.8333 68.5,58.5C 67.8333,58.5 67.5,58.8333 67.5,59.5C 66.8333,59.5 66.5,59.8333 66.5,60.5C 65.6618,60.8417 65.3284,61.5084 65.5,62.5C 64.8333,62.5 64.5,62.8333 64.5,63.5C 63.8333,63.5 63.5,63.8333 63.5,64.5C 62.8333,64.5 62.5,64.8333 62.5,65.5C 59.5482,69.1185 56.2148,72.4519 52.5,75.5C 46.5861,41.2282 59.5861,17.0615 91.5,3C 96.5962,1.64036 101.596,0.473697 106.5,-0.5 Z M 75.5,23.5 C 79.3076,23.1632 82.9743,23.6632 86.5,25C 83.2228,24.7988 79.8895,24.6321 76.5,24.5C 76.5,25.5 76.5,26.5 76.5,27.5C 79.8806,27.4595 83.2139,27.7929 86.5,28.5C 86.7135,30.1439 86.3802,31.6439 85.5,33C 81.6384,33.9133 77.9717,33.5799 74.5,32C 77.7772,32.2012 81.1105,32.3679 84.5,32.5C 84.6399,30.8762 83.9733,29.7096 82.5,29C 79.854,28.5026 77.1873,28.3359 74.5,28.5C 74.366,26.7085 74.6993,25.0418 75.5,23.5 Z M 100.5,23.5 C 102.288,23.2148 103.955,23.5481 105.5,24.5C 106.789,27.5802 108.455,30.4136 110.5,33C 108.09,32.6337 105.59,32.1337 103,31.5C 100.41,32.1337 97.91,32.6337 95.5,33C 97.3068,29.8855 98.9735,26.7188 100.5,23.5 Z M 119.5,23.5 C 121.199,23.3398 122.866,23.5065 124.5,24C 127.47,32.818 129.803,32.6513 131.5,23.5C 133.167,23.5 134.833,23.5 136.5,23.5C 136.82,26.8984 136.487,30.2317 135.5,33.5C 135.324,31.1143 135.324,28.4476 135.5,25.5C 134.325,25.281 133.325,25.6143 132.5,26.5C 131.42,28.9962 130.086,31.3295 128.5,33.5C 126.5,30.8333 124.5,28.1667 122.5,25.5C 121.833,28.1667 121.167,30.8333 120.5,33.5C 119.513,30.2317 119.18,26.8984 119.5,23.5 Z M 147.5,23.5 C 149.402,26.3373 150.069,29.6707 149.5,33.5C 148.448,33.6495 147.448,33.4828 146.5,33C 147.451,29.9433 147.784,26.7766 147.5,23.5 Z M 134.5,52.5 C 134.585,53.9953 133.919,54.9953 132.5,55.5C 130.758,46.1163 125.758,43.9497 117.5,49C 108.605,50.1923 99.9385,49.359 91.5,46.5C 88.4326,48.9877 86.0993,51.9877 84.5,55.5C 85.3481,50.7742 86.5148,46.1076 88,41.5C 88.5613,40.9781 89.228,40.6448 90,40.5C 95.1896,44.7449 101.19,46.7449 108,46.5C 116.185,45.5448 124.351,44.5448 132.5,43.5C 132.336,46.1873 132.503,48.854 133,51.5C 133.383,52.056 133.883,52.3893 134.5,52.5 Z M 144.5,44.5 C 143.167,44.5 141.833,44.5 140.5,44.5C 141.833,41.8333 143.167,41.8333 144.5,44.5 Z M 73.5,53.5 C 74.6009,52.4017 75.9343,52.235 77.5,53C 78.9158,55.2645 80.9158,56.4312 83.5,56.5C 83.5852,57.9953 82.9185,58.9953 81.5,59.5C 79.9596,57.6132 78.2929,55.7799 76.5,54C 75.552,53.5172 74.552,53.3505 73.5,53.5 Z"/></g>
<g><path style="opacity:0.982" fill="#253a4c" d="M 102.5,24.5 C 104.539,25.911 105.539,27.911 105.5,30.5C 98.633,31.2366 97.633,29.2366 102.5,24.5 Z"/></g>
<g><path style="opacity:1" fill="#6ea6a9" d="M 140.5,44.5 C 141.833,44.5 143.167,44.5 144.5,44.5C 145.167,44.5 145.5,44.8333 145.5,45.5C 148.149,52.6148 151.649,59.2815 156,65.5C 158.727,68.7306 161.894,71.3972 165.5,73.5C 166.833,74.8333 166.833,76.1667 165.5,77.5C 163.568,78.5202 161.568,78.6869 159.5,78C 153.36,72.5677 148.026,66.401 143.5,59.5C 140.152,63.8471 136.152,67.5137 131.5,70.5C 130.252,69.9598 129.085,69.2931 128,68.5C 126.846,64.896 126.013,61.2293 125.5,57.5C 114.63,59.1829 103.63,60.0162 92.5,60C 90.1667,63.6667 87.8333,67.3333 85.5,71C 83.2144,72.6636 80.8811,72.8303 78.5,71.5C 78.305,69.097 77.1384,67.4304 75,66.5C 71.9579,70.0614 68.7912,73.5614 65.5,77C 61.7664,80.2791 58.7664,79.9458 56.5,76C 58.3903,72.3799 60.3903,68.8799 62.5,65.5C 63.1667,65.5 63.5,65.1667 63.5,64.5C 64.1667,64.5 64.5,64.1667 64.5,63.5C 65.1667,63.5 65.5,63.1667 65.5,62.5C 66.3382,62.1583 66.6716,61.4916 66.5,60.5C 67.1667,60.5 67.5,60.1667 67.5,59.5C 68.1667,59.5 68.5,59.1667 68.5,58.5C 69.1667,58.5 69.5,58.1667 69.5,57.5C 70.1667,57.5 70.5,57.1667 70.5,56.5C 71.1667,56.5 71.5,56.1667 71.5,55.5C 72.1667,55.5 72.5,55.1667 72.5,54.5C 73.1667,54.5 73.5,54.1667 73.5,53.5C 74.552,53.3505 75.552,53.5172 76.5,54C 78.2929,55.7799 79.9596,57.6132 81.5,59.5C 82.9185,58.9953 83.5852,57.9953 83.5,56.5C 84.1667,56.5 84.5,56.1667 84.5,55.5C 86.0993,51.9877 88.4326,48.9877 91.5,46.5C 99.9385,49.359 108.605,50.1923 117.5,49C 125.758,43.9497 130.758,46.1163 132.5,55.5C 133.919,54.9953 134.585,53.9953 134.5,52.5C 135.167,52.5 135.5,52.1667 135.5,51.5C 136.167,51.5 136.5,51.1667 136.5,50.5C 137.167,50.5 137.5,50.1667 137.5,49.5C 137.5,49.1667 137.5,48.8333 137.5,48.5C 138.167,48.5 138.5,48.1667 138.5,47.5C 139.167,47.5 139.5,47.1667 139.5,46.5C 139.833,45.8333 140.167,45.1667 140.5,44.5 Z"/></g>
<g><path style="opacity:1" fill="#a6a967" d="M 78.5,71.5 C 80.0454,77.261 82.8787,77.9277 87,73.5C 89.6396,68.8658 92.9729,64.8658 97,61.5C 104.439,62.7104 111.939,62.7104 119.5,61.5C 121.693,61.3262 123.527,61.9929 125,63.5C 126.126,67.4648 127.126,71.4648 128,75.5C 129.333,74.1667 130.667,74.1667 132,75.5C 135.012,71.1543 138.679,67.4876 143,64.5C 146.017,68.662 149.184,72.8287 152.5,77C 158.683,79.2006 163.683,82.8672 167.5,88C 153.23,114.136 131.23,125.469 101.5,122C 80.3778,117.612 65.0445,105.779 55.5,86.5C 62.6366,82.2721 68.9699,77.1054 74.5,71C 75.9285,70.4209 77.2618,70.5876 78.5,71.5 Z"/></g>
<g><path style="opacity:1" fill="#42524d" d="M 69.5,88.5 C 70.4778,88.811 71.1445,89.4777 71.5,90.5C 71.1543,91.6956 70.6543,91.6956 70,90.5C 69.5096,94.5084 68.0096,95.1751 65.5,92.5C 66.4978,89.9722 67.3311,89.9722 68,92.5C 68.4101,91.0993 68.9101,89.766 69.5,88.5 Z"/></g>
<g><path style="opacity:1" fill="#36474a" d="M 72.5,93.5 C 73.3764,93.3691 74.0431,93.7025 74.5,94.5C 72.8713,99.5241 71.2047,100.024 69.5,96C 70.5707,95.1482 71.5707,94.3149 72.5,93.5 Z"/></g>
<g><path style="opacity:1" fill="#41514e" d="M 77.5,98.5 C 82.1941,100.338 82.5274,102.671 78.5,105.5C 77.1667,104.5 75.8333,103.5 74.5,102.5C 75.5244,101.148 76.5244,99.8149 77.5,98.5 Z"/></g>
<g><path style="opacity:1" fill="#485750" d="M 84.5,105.5 C 85.9953,105.415 86.9953,106.081 87.5,107.5C 86.5,108.833 85.5,110.167 84.5,111.5C 83.6919,111.192 83.0253,110.692 82.5,110C 83.2666,108.53 83.9332,107.03 84.5,105.5 Z"/></g>
<g><path style="opacity:1" fill="#5a6654" d="M 141.5,100.5 C 143.682,101.3 145.349,102.8 146.5,105C 145.004,105.507 143.837,105.007 143,103.5C 142.493,104.996 142.993,106.163 144.5,107C 143.004,107.507 141.837,107.007 141,105.5C 141.392,111.217 139.892,111.717 136.5,107C 138.406,104.939 140.073,102.772 141.5,100.5 Z"/></g>
<g><path style="opacity:1" fill="#4d5c50" d="M 102.5,111.5 C 105.389,111.999 106.056,113.499 104.5,116C 103.552,116.483 102.552,116.649 101.5,116.5C 101.366,114.708 101.699,113.042 102.5,111.5 Z"/></g>
<g><path style="opacity:1" fill="#48574f" d="M 125.5,110.5 C 128.084,111.048 129.084,112.715 128.5,115.5C 125.151,115.127 124.151,113.46 125.5,110.5 Z"/></g>
</svg>
